<?xml version="1.0" encoding="UTF-8"?>
<svg xmlns="http://www.w3.org/2000/svg" xmlns:xlink="http://www.w3.org/1999/xlink" width="512px" height="512px" viewBox="0 0 512 512" version="1.1">
    
    <title>Backpack</title>
    <desc>Created with Sketch.</desc>
    <defs/>
    <g id="SVG" stroke="none" stroke-width="1" fill="none" fill-rule="evenodd">
        <g id="Backpack">
            <g id="3" transform="translate(10.000000, 0.000000)">
                <polygon id="Fill-1" fill="#FBAE3A" points="399.782795 307.299413 437.472 307.299413 437.472 263.977387 399.782795 263.977387"/>
                <polygon id="Fill-2" fill="#F8E6C4" points="437.472 307.299413 470.309918 307.299413 470.309918 244.53504 437.472 244.53504"/>
                <g id="Group-26" transform="translate(0.000000, 2.673067)">
                    <path d="M350.85749,488.170155 L138.895627,488.170155 C111.880614,488.170155 89.9750795,466.160981 89.9750795,439.018155 L89.9750795,168.811861 L399.778038,168.811861 L399.778038,439.018155 C399.778038,466.160981 377.872504,488.170155 350.85749,488.170155 L350.85749,488.170155 Z" id="Fill-3" fill="#88A451"/>
                    <path d="M352.216395,168.810496 L352.216395,439.016789 C352.216395,466.166443 330.31086,488.168789 303.295847,488.168789 L350.85749,488.168789 C377.872504,488.168789 399.778038,466.166443 399.778038,439.016789 L399.778038,168.810496 L352.216395,168.810496 Z" id="Fill-5" fill="#010202" opacity="0.2"/>
                    <path d="M399.778038,304.626347 L399.778038,439.016107 C399.778038,466.16576 377.872504,488.168107 350.85749,488.168107 L430.645545,488.168107 C457.660559,488.168107 479.566093,466.16576 479.566093,439.016107 L479.566093,304.626347 L399.778038,304.626347 Z" id="Fill-7" fill="#88A451"/>
                    <path d="M438.795573,304.626347 L438.795573,439.016107 C438.795573,466.16576 416.890038,488.168107 389.875025,488.168107 L430.642148,488.168107 C457.657162,488.168107 479.562696,466.16576 479.562696,439.016107 L479.562696,304.626347 L438.795573,304.626347 Z" id="Fill-9" fill="#010202" opacity="0.2"/>
                    <path d="M89.9777973,439.018155 L89.9777973,304.628395 L10.1897425,304.628395 L10.1897425,439.018155 C10.1897425,466.167808 32.0952767,488.170155 59.1102904,488.170155 L138.898345,488.170155 C111.883332,488.170155 89.9777973,466.167808 89.9777973,439.018155" id="Fill-11" fill="#88A451"/>
                    <path d="M409.984767,168.810496 L79.7710685,168.810496 C52.7560548,168.810496 30.8505205,146.801323 30.8505205,119.658496 L30.8505205,93.0413227 C30.8505205,65.8916693 52.7560548,43.8893227 79.7710685,43.8893227 L409.984767,43.8893227 C436.999781,43.8893227 458.905315,65.8916693 458.905315,93.0413227 L458.905315,119.658496 C458.905315,146.801323 436.999781,168.810496 409.984767,168.810496" id="Fill-13" fill="#FBAE3A"/>
                    <polygon id="Fill-15" fill="#F8E6C4" points="124.842521 168.809813 161.077699 168.809813 161.077699 43.88864 124.842521 43.88864"/>
                    <polygon id="Fill-17" fill="#F8E6C4" points="328.678137 168.809813 364.913315 168.809813 364.913315 43.88864 328.678137 43.88864"/>
                    <polygon id="Fill-18" fill="#B4814A" points="158.251178 398.861653 194.486356 398.861653 194.486356 278.132053 158.251178 278.132053"/>
                    <polygon id="Fill-19" fill="#B4814A" points="295.276274 398.861653 331.511452 398.861653 331.511452 278.132053 295.276274 278.132053"/>
                    <path d="M64.7952658,241.859925 L43.0935671,241.859925 C29.1851836,241.859925 17.9062795,253.185365 17.9062795,267.159552 L17.9062795,304.624299 L89.9757589,304.624299 L89.9757589,267.159552 C89.9757589,253.185365 78.7036493,241.859925 64.7952658,241.859925" id="Fill-20" fill="#F8E6C4"/>
                    <path d="M89.9777973,168.810496 L89.9777973,289.342123 C89.9777973,316.491776 111.883332,338.494123 138.898345,338.494123 L158.24914,338.494123 L158.24914,278.132736 L194.484318,278.132736 L194.484318,338.494123 L295.267441,338.494123 L295.267441,278.132736 L331.509414,278.132736 L331.509414,338.494123 L350.860208,338.494123 C377.875222,338.494123 399.780756,316.491776 399.780756,289.342123 L399.780756,168.810496 L89.9777973,168.810496 Z" id="Fill-21" fill="#88A451"/>
                    <path d="M359.010915,168.810496 L359.010915,289.342123 C359.010915,308.763989 347.779573,325.496149 331.506696,333.483349 L331.506696,338.494123 L350.85749,338.494123 C377.872504,338.494123 399.778038,316.491776 399.778038,289.342123 L399.778038,168.810496 L359.010915,168.810496 Z" id="Fill-22" fill="#010202" opacity="0.2"/>
                    <path d="M409.984767,121.023829 L79.7710685,121.023829 C56.3707397,121.023829 36.8432877,104.510123 32.0191781,82.4531627 C31.2717808,85.866496 30.8505205,89.4027093 30.8505205,93.0413227 L30.8505205,119.658496 C30.8505205,146.801323 52.7560548,168.810496 79.7710685,168.810496 L409.984767,168.810496 C436.999781,168.810496 458.905315,146.801323 458.905315,119.658496 L458.905315,93.0413227 C458.905315,89.4027093 458.484055,85.866496 457.736658,82.4531627 C452.912548,104.510123 433.385096,121.023829 409.984767,121.023829" id="Fill-23" fill="#010202" opacity="0.2"/>
                    <path d="M89.9777973,439.018155 L89.9777973,243.188395 L49.210674,243.188395 L49.210674,439.018155 C49.210674,466.167808 71.1162082,488.170155 98.1312219,488.170155 L138.898345,488.170155 C111.883332,488.170155 89.9777973,466.167808 89.9777973,439.018155" id="Fill-24" fill="#010202" opacity="0.2"/>
                    <path d="M469.372953,445.786795 C469.372953,467.243008 451.999364,484.691968 430.644186,484.691968 L395.482542,484.691968 C395.6592,484.487168 395.815474,484.261888 395.985337,484.057088 C396.467748,483.483648 396.916186,482.896555 397.371419,482.309461 C398.030488,481.456128 398.682762,480.602795 399.301063,479.715328 C399.742707,479.080448 400.157173,478.431915 400.578433,477.783381 C401.142378,476.895915 401.692734,475.994795 402.215912,475.073195 C402.6032,474.390528 402.976899,473.694208 403.343803,472.991061 C403.826214,472.055808 404.274652,471.106901 404.709501,470.144341 C405.035638,469.420715 405.354981,468.697088 405.65394,467.959808 C406.054816,466.963115 406.408132,465.952768 406.754652,464.928768 C407.012844,464.191488 407.271036,463.454208 407.495255,462.696448 C407.814597,461.617835 408.072789,460.518741 408.330981,459.419648 C408.507638,458.689195 408.697885,457.972395 408.84057,457.235115 C409.085173,455.999488 409.248241,454.743381 409.41131,453.487275 C409.492844,452.852395 409.615145,452.231168 409.676296,451.589461 C409.859748,449.677995 409.96846,447.746048 409.96846,445.786795 L409.96846,321.630208 L437.472679,321.630208 L469.372953,321.630208 L469.372953,445.786795 Z M100.172296,445.786795 L100.172296,340.881408 C110.554323,349.960875 124.082214,355.504128 138.894268,355.504128 L148.053282,355.504128 L148.053282,405.625515 C148.053282,411.277995 152.6192,415.865515 158.245063,415.865515 L194.487036,415.865515 C200.112899,415.865515 204.678816,411.277995 204.678816,405.625515 L204.678816,355.504128 L285.078378,355.504128 L285.078378,405.625515 C285.078378,411.277995 289.644296,415.865515 295.270159,415.865515 L331.505337,415.865515 C337.1312,415.865515 341.697118,411.277995 341.697118,405.625515 L341.697118,355.504128 L350.862926,355.504128 C365.674981,355.504128 379.202871,349.960875 389.584899,340.881408 L389.584899,445.786795 C389.584899,467.243008 372.21131,484.691968 350.862926,484.691968 L138.894268,484.691968 C117.545885,484.691968 100.172296,467.243008 100.172296,445.786795 L100.172296,445.786795 Z M59.1130082,484.691968 C37.7578301,484.691968 20.3842411,467.243008 20.3842411,445.786795 L20.3842411,321.630208 L79.7887342,321.630208 L79.7887342,445.786795 C79.7887342,447.746048 79.8974466,449.677995 80.0808986,451.589461 C80.1420493,452.231168 80.2643507,452.852395 80.3458849,453.487275 C80.5089534,454.743381 80.6720219,455.999488 80.9166247,457.235115 C81.0593096,457.972395 81.2495562,458.689195 81.4194192,459.419648 C81.6844055,460.518741 81.9425973,461.617835 82.2619397,462.696448 C82.4861589,463.454208 82.7443507,464.191488 83.0025425,464.928768 C83.349063,465.952768 83.7023781,466.963115 84.1032548,467.959808 C84.4022137,468.697088 84.7215562,469.420715 85.0476932,470.144341 C85.4825425,471.106901 85.9309808,472.055808 86.4133918,472.991061 C86.7802959,473.694208 87.1539945,474.390528 87.5412822,475.073195 C88.0644603,475.994795 88.6148164,476.895915 89.1787616,477.783381 C89.6000219,478.431915 90.0144877,479.080448 90.4561315,479.715328 C91.0744329,480.602795 91.7199123,481.456128 92.3857753,482.309461 C92.8410082,482.896555 93.2894466,483.483648 93.7718575,484.057088 C93.9417205,484.261888 94.0979945,484.487168 94.2746521,484.691968 L59.1130082,484.691968 Z M28.1028164,273.925461 C28.1028164,265.617408 34.8225973,258.865835 43.0915288,258.865835 L64.7932274,258.865835 C73.0621589,258.865835 79.7887342,265.617408 79.7887342,273.925461 L79.7887342,296.112128 L79.7887342,301.150208 L28.1028164,301.150208 L28.1028164,273.925461 Z M168.436844,345.264128 L168.436844,295.142741 L184.295255,295.142741 L184.295255,345.264128 L184.295255,395.385515 L168.436844,395.385515 L168.436844,345.264128 Z M305.46194,345.264128 L305.46194,295.142741 L321.313556,295.142741 L321.313556,345.264128 L321.313556,395.385515 L305.46194,395.385515 L305.46194,345.264128 Z M124.8432,185.820501 L161.078378,185.820501 L328.678816,185.820501 L364.913995,185.820501 L389.584899,185.820501 L389.584899,268.075008 L389.584899,296.112128 C389.584899,317.575168 372.21131,335.024128 350.862926,335.024128 L341.697118,335.024128 L341.697118,284.902741 C341.697118,279.243435 337.1312,274.662741 331.505337,274.662741 L295.270159,274.662741 C289.644296,274.662741 285.078378,279.243435 285.078378,284.902741 L285.078378,335.024128 L204.678816,335.024128 L204.678816,284.902741 C204.678816,279.243435 200.112899,274.662741 194.487036,274.662741 L158.245063,274.662741 C152.6192,274.662741 148.053282,279.243435 148.053282,284.902741 L148.053282,335.024128 L138.894268,335.024128 C117.545885,335.024128 100.172296,317.575168 100.172296,296.112128 L100.172296,273.925461 L100.172296,185.820501 L124.8432,185.820501 Z M41.0395836,126.428501 L41.0395836,99.8045013 C41.0395836,78.348288 58.4131726,60.8925013 79.7683507,60.8925013 L114.651419,60.8925013 L114.651419,165.340501 L89.9805151,165.340501 L79.7683507,165.340501 C58.4131726,165.340501 41.0395836,147.884715 41.0395836,126.428501 L41.0395836,126.428501 Z M135.034981,165.340501 L150.886597,165.340501 L150.886597,60.8925013 L135.034981,60.8925013 L135.034981,165.340501 Z M226.061173,20.635648 L263.696022,20.635648 C276.592022,20.635648 287.60594,28.889088 291.777775,40.4125013 L197.979419,40.4125013 C202.151255,28.889088 213.165173,20.635648 226.061173,20.635648 L226.061173,20.635648 Z M171.270159,165.340501 L171.270159,60.8925013 L185.993885,60.8925013 L303.76331,60.8925013 L318.487036,60.8925013 L318.487036,165.340501 L171.270159,165.340501 Z M338.870597,165.340501 L354.722214,165.340501 L354.722214,60.8925013 L338.870597,60.8925013 L338.870597,165.340501 Z M448.710816,99.8045013 L448.710816,126.428501 C448.710816,147.884715 431.337227,165.340501 409.988844,165.340501 L399.776679,165.340501 L375.105775,165.340501 L375.105775,60.8925013 L409.988844,60.8925013 C431.337227,60.8925013 448.710816,78.348288 448.710816,99.8045013 L448.710816,99.8045013 Z M427.280899,278.315008 L427.280899,301.150208 L409.96846,301.150208 L409.96846,296.112128 L409.96846,278.315008 L427.280899,278.315008 Z M447.66446,258.865835 L460.118816,258.865835 L460.118816,301.150208 L447.66446,301.150208 L447.66446,268.075008 L447.66446,258.865835 Z M480.502378,301.245781 L480.502378,248.625835 C480.502378,242.973355 475.93646,238.385835 470.310597,238.385835 L437.472679,238.385835 C431.846816,238.385835 427.280899,242.973355 427.280899,248.625835 L427.280899,257.835008 L409.96846,257.835008 L409.96846,185.820501 L409.988844,185.820501 C442.582159,185.820501 469.094378,159.176021 469.094378,126.428501 L469.094378,99.8045013 C469.094378,67.0569813 442.582159,40.4125013 409.988844,40.4125013 L364.913995,40.4125013 L328.678816,40.4125013 L312.915529,40.4125013 C308.186542,17.461248 287.918488,0.155648 263.696022,0.155648 L226.061173,0.155648 C201.838707,0.155648 181.570652,17.461248 176.841666,40.4125013 L161.078378,40.4125013 L124.8432,40.4125013 L79.7683507,40.4125013 C47.1750356,40.4125013 20.6560219,67.0569813 20.6560219,99.8045013 L20.6560219,126.428501 C20.6560219,159.176021 47.1750356,185.820501 79.7683507,185.820501 L79.7887342,185.820501 L79.7887342,241.860608 C75.2228164,239.689728 70.1744877,238.385835 64.7932274,238.385835 L43.0915288,238.385835 C23.5844603,238.385835 7.71925479,254.326101 7.71925479,273.925461 L7.71925479,301.491541 C3.29602192,302.611115 0.000679452055,306.604715 0.000679452055,311.390208 L0.000679452055,445.786795 C0.000679452055,478.534315 26.5196932,505.171968 59.1130082,505.171968 L138.894268,505.171968 L350.862926,505.171968 L430.644186,505.171968 C463.237501,505.171968 489.756515,478.534315 489.756515,445.786795 L489.756515,311.390208 C489.756515,306.065408 485.679803,301.730475 480.502378,301.245781 L480.502378,301.245781 Z" id="Fill-25" fill="#2E2E30"/>
                </g>
            </g>
        </g>
    </g>

	<metadata>
		<rdf:RDF xmlns:rdf="http://www.w3.org/1999/02/22-rdf-syntax-ns#" xmlns:rdfs="http://www.w3.org/2000/01/rdf-schema#" xmlns:dc="http://purl.org/dc/elements/1.1/">
			<rdf:Description about="https://iconscout.com/legal#licenses" dc:title="Backpack" dc:description="Backpack" dc:publisher="Iconscout" dc:date="2017-04-21" dc:format="image/svg+xml" dc:language="en">
				<dc:creator>
					<rdf:Bag>
						<rdf:li>AomAm .</rdf:li>
					</rdf:Bag>
				</dc:creator>
			</rdf:Description>
		</rdf:RDF>
    </metadata></svg>
