<svg xmlns="http://www.w3.org/2000/svg" xmlns:xlink="http://www.w3.org/1999/xlink" viewBox="0 0 64 64"><defs><linearGradient id="a" x1="7.857" x2="53.618" y1="60.348" y2="8.275" gradientUnits="userSpaceOnUse"><stop offset="0" stop-color="#fff200"/><stop offset="1" stop-color="#cd118c"/></linearGradient><linearGradient id="b" x1="20.598" x2="66.359" y1="71.544" y2="19.471" xlink:href="#a"/></defs><path fill="url(#a)" d="M59,24H54V7a5,5,0,0,0-5-5H45a5,5,0,0,0-5,5V8.22A23.809,23.809,0,0,0,20.58,6.2L18.91,2.58A1.016,1.016,0,0,0,18,2H14a1,1,0,0,0-1,1v7.29A20.63,20.63,0,0,0,11.09,12H9.01L7.95,8.69A1,1,0,0,0,7,8H3A1,1,0,0,0,2,9V23a1,1,0,0,0,1,1H4.54A23.274,23.274,0,0,0,4,29,24.032,24.032,0,0,0,28,53a23.147,23.147,0,0,0,3-.21V56a3.009,3.009,0,0,0,3,3h.14a3.983,3.983,0,0,0,7.72,0h9.28a3.983,3.983,0,0,0,7.72,0H59a3.009,3.009,0,0,0,3-3V27A3.009,3.009,0,0,0,59,24ZM42,7a3.009,3.009,0,0,1,3-3h4a3.009,3.009,0,0,1,3,3V24h-.52A24.19,24.19,0,0,0,42,9.52Zm0,5.05a22.314,22.314,0,0,1,3.41,3.53L42,19.48Zm0,9.99.27-.08a.963.963,0,0,0,.48-.3l3.84-4.4A21.975,21.975,0,0,1,49.41,24H42ZM28,7a21.786,21.786,0,0,1,12,3.58v.17c-.1.13-.18.22-.22.27A7.449,7.449,0,0,0,36.9,12.7,13.854,13.854,0,0,1,35,14a8.284,8.284,0,0,0-2.28.56A4,4,0,0,0,29,12H23.25L21.42,8.03A21.757,21.757,0,0,1,28,7ZM4,22V10H6.27l1.06,3.31a1.012,1.012,0,0,0,.96.69H14a1,1,0,0,0,1-1V4h2.36l4.35,9.42a1,1,0,0,0,.91.58H29a2,2,0,0,1,0,4H22.62a1,1,0,0,0-.91.58L17.36,28H15V19a1,1,0,0,0-1-1H8.29a1.012,1.012,0,0,0-.96.69L6.27,22Zm2,7a22.052,22.052,0,0,1,.59-5H7a1,1,0,0,0,.95-.69L9.01,20H13v9a1,1,0,0,0,1,1h4a1.016,1.016,0,0,0,.91-.58l1.22-2.64.4.33A5.467,5.467,0,0,0,19,30a9.918,9.918,0,0,1-.15,1.05c-.29,1.59-.65,3.57.44,4.66.46.45,1.23,3.06,1.69,5.29l-.92,4.61-2,3A22,22,0,0,1,6,29ZM31,50.78A23.157,23.157,0,0,1,28,51a21.826,21.826,0,0,1-8.1-1.55l1.93-2.9a.908.908,0,0,0,.15-.35l1-5a.9.9,0,0,0,0-.4c-.25-1.24-1.15-5.38-2.27-6.51-.35-.35-.02-2.19.1-2.89A8.078,8.078,0,0,0,21,30.02a7.334,7.334,0,0,1,1.71-2.31,1.031,1.031,0,0,0,.29-.77.994.994,0,0,0-.38-.72l-1.63-1.31L23.25,20H29a3.994,3.994,0,0,0,3.94-3.4A11.443,11.443,0,0,1,35,16c.79,0,1.65-.61,3.1-1.7A13.854,13.854,0,0,1,40,13v7.53l-5.24,1.5-8,2a1.013,1.013,0,0,0-.69.6l-2,5a1.093,1.093,0,0,0-.05.17l-1,5a1,1,0,0,0,.18.8l2.97,3.95,1.96,2.95L31,48.24Zm9-28.17V24H35.12l.15-.04ZM31,27V43.76l-1.11-2.21a.53.53,0,0,0-.06-.1L27.8,38.4l-2.73-3.64.89-4.47,1.78-4.44L32,24.78A2.986,2.986,0,0,0,31,27Zm7,33a2,2,0,0,1-1.72-1h3.44A2,2,0,0,1,38,60Zm17,0a1.984,1.984,0,0,1-1.73-1h3.46A1.984,1.984,0,0,1,55,60Zm5-4a1,1,0,0,1-1,1H34a1,1,0,0,1-1-1V27a1,1,0,0,1,1-1H59a1,1,0,0,1,1,1Z"/><path fill="url(#b)" d="M57,43.047V30H55V42.249l-4-1.333V30H49v4.387a.99.99,0,0,0-.283-.655L45,30.015V30h-.015l-1.217-1.218a1.029,1.029,0,0,0-1.414,0L39,32.136V30H37v4.136l-1.717,1.718a1,1,0,0,0,0,1.414L37,38.985V53h2V40.985l1.232,1.233a1,1,0,0,0,1.414,0L43,40.864V53h2V38.864l3.717-3.718A.985.985,0,0,0,49,34.492v5.793a1.98,1.98,0,0,0-2.289,2.574L49,49.726V53h2V51.4h.006a1.984,1.984,0,0,0,1.408-.586L55,48.229V53h2V46.229l.2-.2a1.979,1.979,0,0,0-.2-2.985ZM40.939,40.1,37.4,36.561,43.061,30.9,46.6,34.439ZM51,49.4l-2.391-7.173,7.177,2.387,0,0h0Z"/></svg>