<?xml version="1.0" encoding="UTF-8" standalone="no"?>
<svg xmlns:dc="http://purl.org/dc/elements/1.1/" xmlns:cc="http://creativecommons.org/ns#" xmlns:rdf="http://www.w3.org/1999/02/22-rdf-syntax-ns#" xmlns:svg="http://www.w3.org/2000/svg" xmlns="http://www.w3.org/2000/svg" xmlns:sodipodi="http://sodipodi.sourceforge.net/DTD/sodipodi-0.dtd" xmlns:inkscape="http://www.inkscape.org/namespaces/inkscape" width="32" height="32" viewBox="0 0 8.4666665 8.4666669" version="1.1" id="svg16050" inkscape:version="0.91 r13725" sodipodi:docname="travel-vacation-camping-car-expedition-transportation-trip.svg">
  <defs id="defs16044"/>
  <sodipodi:namedview id="base" pagecolor="#ffffff" bordercolor="#666666" borderopacity="1.0" inkscape:pageopacity="0.0" inkscape:pageshadow="2" inkscape:zoom="11.2" inkscape:cx="14.043535" inkscape:cy="18.583404" inkscape:document-units="mm" inkscape:current-layer="layer1" showgrid="false" inkscape:window-width="1366" inkscape:window-height="716" inkscape:window-x="-8" inkscape:window-y="-8" inkscape:window-maximized="1" units="px"/>
  
  <g inkscape:label="Layer 1" inkscape:groupmode="layer" id="layer1" transform="translate(0,-288.53332)">
    <g transform="matrix(0.26458334,0,0,0.26458336,678.22804,-93.496345)" style="display:inline" id="g31286">
      <path style="opacity:1;fill:#ffcc71;fill-opacity:1;stroke:none;stroke-width:1;stroke-linecap:round;stroke-linejoin:round;stroke-miterlimit:4;stroke-dasharray:none;stroke-dashoffset:0;stroke-opacity:1" d="m -2533.9837,1459.9734 a 12.375,12.375 0 0 1 -12.375,12.375 12.375,12.375 0 0 1 -12.375,-12.375 12.375,12.375 0 0 1 12.375,-12.375 12.375,12.375 0 0 1 12.375,12.375 z" id="path28839" inkscape:connector-curvature="0"/>
      <g style="fill:#3a3640;fill-opacity:1" id="g22978" transform="translate(-1183.9453,0)">
        <path sodipodi:nodetypes="cccccccccccccccccccccc" inkscape:connector-curvature="0" id="path22940" d="m -1354.6405,1445.2985 c -0.2669,-0.012 -0.5349,0 -0.7987,0.045 -1.7892,0.2784 -3.162,1.6914 -3.3611,3.4623 -0.5171,0.019 -0.9138,0.143 -1.3123,0.2286 -1.4573,0.4901 -2.5072,1.7695 -2.6931,3.2885 -0.097,0.6751 0.926,0.7997 0.994,0.1211 0.1391,-1.1359 0.9226,-2.0917 2.0194,-2.4605 0.2863,-0.097 0.5857,-0.1505 0.8866,-0.1582 0.838,-0.022 1.6451,0.3033 2.2302,0.8963 0.4687,0.4815 1.1886,-0.2265 0.7148,-0.703 -0.5018,-0.5086 -1.1559,-0.8758 -1.8338,-1.0603 0.1525,-1.3344 1.1333,-2.4131 2.5096,-2.6266 0.1985,-0.031 0.3988,-0.042 0.5995,-0.033 1.2088,0.054 2.2702,0.7879 2.6931,1.8943 0.1076,0.2789 0.4341,0.402 0.6991,0.2635 0.5675,-0.2985 1.247,-0.2137 1.7597,0.1993 0.5029,0.4057 0.7092,1.0624 0.5292,1.6775 -0.2137,0.6545 0.7879,0.9476 0.9608,0.2811 0.293,-1.0007 -0.048,-2.0836 -0.8612,-2.7398 -0.6863,-0.5529 -1.5385,-0.7204 -2.3631,-0.5019 -0.6573,-1.2168 -1.9374,-2.0101 -3.3746,-2.0739 z" style="color:#000000;font-style:normal;font-variant:normal;font-weight:normal;font-stretch:normal;font-size:medium;line-height:normal;font-family:sans-serif;text-indent:0;text-align:start;text-decoration:none;text-decoration-line:none;text-decoration-style:solid;text-decoration-color:#000000;letter-spacing:normal;word-spacing:normal;text-transform:none;direction:ltr;writing-mode:lr-tb;baseline-shift:baseline;text-anchor:start;white-space:normal;clip-rule:nonzero;display:inline;overflow:visible;visibility:visible;opacity:1;isolation:auto;mix-blend-mode:normal;color-interpolation:sRGB;color-interpolation-filters:linearRGB;solid-color:#000000;solid-opacity:1;fill:#3a3640;fill-opacity:1;fill-rule:nonzero;stroke:none;stroke-width:1.00157475;stroke-linecap:round;stroke-linejoin:round;stroke-miterlimit:4;stroke-dasharray:none;stroke-dashoffset:0;stroke-opacity:1;color-rendering:auto;image-rendering:auto;shape-rendering:auto;text-rendering:auto;enable-background:accumulate"/>
        <path inkscape:connector-curvature="0" id="path22942" d="m -1361.3273,1446.651 c -1.3488,-0.1872 -2.6153,0.7426 -2.8239,2.0837 -0.2088,1.341 0.7173,2.6087 2.0603,2.8335 a 0.50099866,0.50097274 0 1 0 0.166,-0.9881 c -0.8183,-0.137 -1.3618,-0.8841 -1.2362,-1.6912 0.1256,-0.8069 0.8733,-1.3599 1.6951,-1.2458 0.8219,0.114 1.3858,0.8457 1.2831,1.6559 a 0.50109639,0.50107048 0 1 0 0.9941,0.127 c 0.1708,-1.3465 -0.7895,-2.5878 -2.1385,-2.775 z" style="color:#000000;font-style:normal;font-variant:normal;font-weight:normal;font-stretch:normal;font-size:medium;line-height:normal;font-family:sans-serif;text-indent:0;text-align:start;text-decoration:none;text-decoration-line:none;text-decoration-style:solid;text-decoration-color:#000000;letter-spacing:normal;word-spacing:normal;text-transform:none;direction:ltr;writing-mode:lr-tb;baseline-shift:baseline;text-anchor:start;white-space:normal;clip-rule:nonzero;display:inline;overflow:visible;visibility:visible;opacity:1;isolation:auto;mix-blend-mode:normal;color-interpolation:sRGB;color-interpolation-filters:linearRGB;solid-color:#000000;solid-opacity:1;fill:#3a3640;fill-opacity:1;fill-rule:nonzero;stroke:none;stroke-width:1.00157475;stroke-linecap:round;stroke-linejoin:round;stroke-miterlimit:4;stroke-dasharray:none;stroke-dashoffset:0;stroke-opacity:1;color-rendering:auto;image-rendering:auto;shape-rendering:auto;text-rendering:auto;enable-background:accumulate"/>
        <path inkscape:connector-curvature="0" id="path22944" d="m -1362.1748,1444.8915 0,0.9939 0.9999,0 0,-0.9939 z" style="color:#000000;font-style:normal;font-variant:normal;font-weight:normal;font-stretch:normal;font-size:medium;line-height:normal;font-family:sans-serif;text-indent:0;text-align:start;text-decoration:none;text-decoration-line:none;text-decoration-style:solid;text-decoration-color:#000000;letter-spacing:normal;word-spacing:normal;text-transform:none;direction:ltr;writing-mode:lr-tb;baseline-shift:baseline;text-anchor:start;white-space:normal;clip-rule:nonzero;display:inline;overflow:visible;visibility:visible;opacity:1;isolation:auto;mix-blend-mode:normal;color-interpolation:sRGB;color-interpolation-filters:linearRGB;solid-color:#000000;solid-opacity:1;fill:#3a3640;fill-opacity:1;fill-rule:evenodd;stroke:none;stroke-width:1.00000012px;stroke-linecap:butt;stroke-linejoin:miter;stroke-miterlimit:4;stroke-dasharray:none;stroke-dashoffset:0;stroke-opacity:1;color-rendering:auto;image-rendering:auto;shape-rendering:auto;text-rendering:auto;enable-background:accumulate"/>
        <path inkscape:connector-curvature="0" id="path22946" d="m -1365.9341,1448.6136 0,0.9999 1.0017,0 0,-0.9999 z" style="color:#000000;font-style:normal;font-variant:normal;font-weight:normal;font-stretch:normal;font-size:medium;line-height:normal;font-family:sans-serif;text-indent:0;text-align:start;text-decoration:none;text-decoration-line:none;text-decoration-style:solid;text-decoration-color:#000000;letter-spacing:normal;word-spacing:normal;text-transform:none;direction:ltr;writing-mode:lr-tb;baseline-shift:baseline;text-anchor:start;white-space:normal;clip-rule:nonzero;display:inline;overflow:visible;visibility:visible;opacity:1;isolation:auto;mix-blend-mode:normal;color-interpolation:sRGB;color-interpolation-filters:linearRGB;solid-color:#000000;solid-opacity:1;fill:#3a3640;fill-opacity:1;fill-rule:evenodd;stroke:none;stroke-width:1.00000012px;stroke-linecap:butt;stroke-linejoin:miter;stroke-miterlimit:4;stroke-dasharray:none;stroke-dashoffset:0;stroke-opacity:1;color-rendering:auto;image-rendering:auto;shape-rendering:auto;text-rendering:auto;enable-background:accumulate"/>
        <path inkscape:connector-curvature="0" id="path22948" d="m -1364.3347,1445.7723 -0.7031,0.7108 0.7088,0.7029 0.7031,-0.7107 z" style="color:#000000;font-style:normal;font-variant:normal;font-weight:normal;font-stretch:normal;font-size:medium;line-height:normal;font-family:sans-serif;text-indent:0;text-align:start;text-decoration:none;text-decoration-line:none;text-decoration-style:solid;text-decoration-color:#000000;letter-spacing:normal;word-spacing:normal;text-transform:none;direction:ltr;writing-mode:lr-tb;baseline-shift:baseline;text-anchor:start;white-space:normal;clip-rule:nonzero;display:inline;overflow:visible;visibility:visible;opacity:1;isolation:auto;mix-blend-mode:normal;color-interpolation:sRGB;color-interpolation-filters:linearRGB;solid-color:#000000;solid-opacity:1;fill:#3a3640;fill-opacity:1;fill-rule:evenodd;stroke:none;stroke-width:1.00000012px;stroke-linecap:butt;stroke-linejoin:miter;stroke-miterlimit:4;stroke-dasharray:none;stroke-dashoffset:0;stroke-opacity:1;color-rendering:auto;image-rendering:auto;shape-rendering:auto;text-rendering:auto;enable-background:accumulate"/>
        <path inkscape:connector-curvature="0" id="path22950" d="m -1359.015,1445.7723 -0.7089,0.703 0.703,0.7107 0.7088,-0.7029 z" style="color:#000000;font-style:normal;font-variant:normal;font-weight:normal;font-stretch:normal;font-size:medium;line-height:normal;font-family:sans-serif;text-indent:0;text-align:start;text-decoration:none;text-decoration-line:none;text-decoration-style:solid;text-decoration-color:#000000;letter-spacing:normal;word-spacing:normal;text-transform:none;direction:ltr;writing-mode:lr-tb;baseline-shift:baseline;text-anchor:start;white-space:normal;clip-rule:nonzero;display:inline;overflow:visible;visibility:visible;opacity:1;isolation:auto;mix-blend-mode:normal;color-interpolation:sRGB;color-interpolation-filters:linearRGB;solid-color:#000000;solid-opacity:1;fill:#3a3640;fill-opacity:1;fill-rule:evenodd;stroke:none;stroke-width:1.00000012px;stroke-linecap:butt;stroke-linejoin:miter;stroke-miterlimit:4;stroke-dasharray:none;stroke-dashoffset:0;stroke-opacity:1;color-rendering:auto;image-rendering:auto;shape-rendering:auto;text-rendering:auto;enable-background:accumulate"/>
        <path inkscape:connector-curvature="0" id="path22952" d="m -1364.329,1451.0428 -0.7088,0.7031 0.703,0.7089 0.7089,-0.7011 z" style="color:#000000;font-style:normal;font-variant:normal;font-weight:normal;font-stretch:normal;font-size:medium;line-height:normal;font-family:sans-serif;text-indent:0;text-align:start;text-decoration:none;text-decoration-line:none;text-decoration-style:solid;text-decoration-color:#000000;letter-spacing:normal;word-spacing:normal;text-transform:none;direction:ltr;writing-mode:lr-tb;baseline-shift:baseline;text-anchor:start;white-space:normal;clip-rule:nonzero;display:inline;overflow:visible;visibility:visible;opacity:1;isolation:auto;mix-blend-mode:normal;color-interpolation:sRGB;color-interpolation-filters:linearRGB;solid-color:#000000;solid-opacity:1;fill:#3a3640;fill-opacity:1;fill-rule:evenodd;stroke:none;stroke-width:1.00000012px;stroke-linecap:butt;stroke-linejoin:miter;stroke-miterlimit:4;stroke-dasharray:none;stroke-dashoffset:0;stroke-opacity:1;color-rendering:auto;image-rendering:auto;shape-rendering:auto;text-rendering:auto;enable-background:accumulate"/>
        <path inkscape:connector-curvature="0" id="path22954" d="m -1374.0299,1452.7164 c -0.7196,-0.172 -1.4867,-0.1454 -2.2146,0.1016 -1.4558,0.4938 -2.5005,1.782 -2.6852,3.3079 a 0.5007849,0.50075901 0 1 0 0.9941,0.1192 c 0.1388,-1.146 0.9202,-2.1072 2.0133,-2.4781 1.0932,-0.3708 2.2997,-0.083 3.1071,0.7421 a 0.5007849,0.50075901 0 1 0 0.7149,-0.7011 c -0.5377,-0.5493 -1.2099,-0.9196 -1.9296,-1.0916 z" style="color:#000000;font-style:normal;font-variant:normal;font-weight:normal;font-stretch:normal;font-size:medium;line-height:normal;font-family:sans-serif;text-indent:0;text-align:start;text-decoration:none;text-decoration-line:none;text-decoration-style:solid;text-decoration-color:#000000;letter-spacing:normal;word-spacing:normal;text-transform:none;direction:ltr;writing-mode:lr-tb;baseline-shift:baseline;text-anchor:start;white-space:normal;clip-rule:nonzero;display:inline;overflow:visible;visibility:visible;opacity:1;isolation:auto;mix-blend-mode:normal;color-interpolation:sRGB;color-interpolation-filters:linearRGB;solid-color:#000000;solid-opacity:1;fill:#3a3640;fill-opacity:1;fill-rule:nonzero;stroke:none;stroke-width:1.00157475;stroke-linecap:round;stroke-linejoin:round;stroke-miterlimit:4;stroke-dasharray:none;stroke-dashoffset:0;stroke-opacity:1;color-rendering:auto;image-rendering:auto;shape-rendering:auto;text-rendering:auto;enable-background:accumulate"/>
        <path inkscape:connector-curvature="0" id="path22956" d="m -1371.6805,1449.9297 c -1.5357,0.233 -2.7121,1.4876 -2.7907,3.0112 a 0.5007849,0.50075901 0 1 0 0.9999,0.051 c 0.054,-1.0398 0.8539,-1.907 1.9412,-2.0719 1.0873,-0.1649 2.1317,0.4291 2.5134,1.406 a 0.50085297,0.50082707 0 1 0 0.9335,-0.3632 c -0.5565,-1.4244 -2.0616,-2.2658 -3.5973,-2.0329 z" style="color:#000000;font-style:normal;font-variant:normal;font-weight:normal;font-stretch:normal;font-size:medium;line-height:normal;font-family:sans-serif;text-indent:0;text-align:start;text-decoration:none;text-decoration-line:none;text-decoration-style:solid;text-decoration-color:#000000;letter-spacing:normal;word-spacing:normal;text-transform:none;direction:ltr;writing-mode:lr-tb;baseline-shift:baseline;text-anchor:start;white-space:normal;clip-rule:nonzero;display:inline;overflow:visible;visibility:visible;opacity:1;isolation:auto;mix-blend-mode:normal;color-interpolation:sRGB;color-interpolation-filters:linearRGB;solid-color:#000000;solid-opacity:1;fill:#3a3640;fill-opacity:1;fill-rule:nonzero;stroke:none;stroke-width:1.00157475;stroke-linecap:round;stroke-linejoin:round;stroke-miterlimit:4;stroke-dasharray:none;stroke-dashoffset:0;stroke-opacity:1;color-rendering:auto;image-rendering:auto;shape-rendering:auto;text-rendering:auto;enable-background:accumulate"/>
        <path inkscape:connector-curvature="0" id="path22958" d="m -1368.6632,1451.8571 c -0.3997,0.038 -0.7898,0.1904 -1.1172,0.4491 a 0.5007849,0.50075901 0 1 0 0.6211,0.7851 c 0.3477,-0.2748 0.8213,-0.3193 1.2147,-0.1152 0.3934,0.2041 0.6281,0.6159 0.6035,1.0584 a 0.5007849,0.50075901 0 1 0 0.9999,0.057 c 0.046,-0.8334 -0.4016,-1.6211 -1.1425,-2.0056 -0.3704,-0.1923 -0.7799,-0.2666 -1.1795,-0.2285 z" style="color:#000000;font-style:normal;font-variant:normal;font-weight:normal;font-stretch:normal;font-size:medium;line-height:normal;font-family:sans-serif;text-indent:0;text-align:start;text-decoration:none;text-decoration-line:none;text-decoration-style:solid;text-decoration-color:#000000;letter-spacing:normal;word-spacing:normal;text-transform:none;direction:ltr;writing-mode:lr-tb;baseline-shift:baseline;text-anchor:start;white-space:normal;clip-rule:nonzero;display:inline;overflow:visible;visibility:visible;opacity:1;isolation:auto;mix-blend-mode:normal;color-interpolation:sRGB;color-interpolation-filters:linearRGB;solid-color:#000000;solid-opacity:1;fill:#3a3640;fill-opacity:1;fill-rule:nonzero;stroke:none;stroke-width:1.00157475;stroke-linecap:round;stroke-linejoin:round;stroke-miterlimit:4;stroke-dasharray:none;stroke-dashoffset:0;stroke-opacity:1;color-rendering:auto;image-rendering:auto;shape-rendering:auto;text-rendering:auto;enable-background:accumulate"/>
        <path inkscape:connector-curvature="0" id="path22960" d="m -1364.8219,1463.3894 c -0.721,0 -1.4291,0.199 -2.0466,0.5741 l -3.4372,2.0876 c -0.8033,0.4881 -1.6829,0.8315 -2.6012,1.0174 l -1.0117,0.2051 c -2.0455,0.4141 -3.6098,2.0917 -3.9038,4.175 l -0.025,0.1895 -0.08,0 a 0.49999746,0.49997161 0 1 0 0,0.9999 l 3.9858,0 a 0.49999746,0.49997161 0 0 0 0.059,0 c 0.2364,1.2765 1.3565,2.2535 2.699,2.2535 1.3411,0 2.461,-0.975 2.6988,-2.2496 l 11.1005,0 c 0.2378,1.2746 1.3578,2.2496 2.6989,2.2496 1.3412,0 2.461,-0.975 2.6989,-2.2496 l 3.0153,0 a 0.52761501,0.49997164 0 1 0 0,-0.9999 l -0.2148,0 0,-3.2534 c 10e-5,-0.8876 -0.7244,-1.6247 -1.6111,-1.6247 -0.624,0 -1.2337,-0.186 -1.7538,-0.537 l -2.9528,-1.9939 c -0.8115,-0.5478 -1.7654,-0.8397 -2.7419,-0.8397 z m 0,0.9998 2.5584,0 0,2.4548 -7.513,0.055 3.4274,-2.0818 c 0.4619,-0.2806 0.9897,-0.4277 1.5272,-0.4277 z m 3.5583,0 3.0172,0 c 0.7768,0 1.5342,0.233 2.1814,0.6698 l 2.5506,1.7205 -7.7492,0.057 z m 10.4657,3.3706 c 0.3395,0 0.6112,0.2711 0.6112,0.6249 l 0,0.3457 -0.9784,0 0,1.1307 0.9784,0 0,1.777 -1.8006,0 c -0.2372,-1.2754 -1.3571,-2.2496 -2.6989,-2.2496 -1.3417,0 -2.4618,0.9742 -2.6989,2.2496 l -11.1005,0 c -0.2371,-1.2754 -1.3571,-2.2496 -2.6988,-2.2496 -1.3424,0 -2.4626,0.9752 -2.699,2.2515 a 0.49999746,0.49997161 0 0 0 -0.059,0 l -2.898,0 0.01,-0.051 c 0.2358,-1.672 1.4843,-3.0036 3.1128,-3.3334 l 1.0117,-0.205 c 0.179,-0.036 0.3551,-0.086 0.5312,-0.1328 7.1249,-0.051 14.2581,-0.1065 21.3786,-0.1563 z m -20.3865,2.6285 c 0.9722,0 1.7497,0.7775 1.7497,1.7497 0,0.9723 -0.7775,1.7498 -1.7497,1.7498 -0.9723,0 -1.7499,-0.7775 -1.7499,-1.7498 0,-0.9722 0.7776,-1.7497 1.7499,-1.7497 z m 16.4982,0 c 0.9723,0 1.7498,0.7775 1.7498,1.7497 0,0.9723 -0.7775,1.7498 -1.7498,1.7498 -0.9723,0 -1.7498,-0.7775 -1.7498,-1.7498 0,-0.9722 0.7775,-1.7497 1.7498,-1.7497 z" style="color:#000000;font-style:normal;font-variant:normal;font-weight:normal;font-stretch:normal;font-size:medium;line-height:normal;font-family:sans-serif;text-indent:0;text-align:start;text-decoration:none;text-decoration-line:none;text-decoration-style:solid;text-decoration-color:#000000;letter-spacing:normal;word-spacing:normal;text-transform:none;direction:ltr;writing-mode:lr-tb;baseline-shift:baseline;text-anchor:start;white-space:normal;clip-rule:nonzero;display:inline;overflow:visible;visibility:visible;opacity:1;isolation:auto;mix-blend-mode:normal;color-interpolation:sRGB;color-interpolation-filters:linearRGB;solid-color:#000000;solid-opacity:1;fill:#3a3640;fill-opacity:1;fill-rule:nonzero;stroke:none;stroke-width:1;stroke-linecap:round;stroke-linejoin:round;stroke-miterlimit:4;stroke-dasharray:none;stroke-dashoffset:0;stroke-opacity:1;color-rendering:auto;image-rendering:auto;shape-rendering:auto;text-rendering:auto;enable-background:accumulate"/>
        <path inkscape:connector-curvature="0" style="opacity:1;fill:#3a3640;fill-opacity:1;stroke:none;stroke-width:1;stroke-linecap:round;stroke-linejoin:round;stroke-miterlimit:4;stroke-dasharray:none;stroke-opacity:1" d="m -1370.6853,1472.1372 a 0.49994754,0.49992168 0 0 1 -0.4998,0.5 0.49994754,0.49992168 0 0 1 -0.5,-0.5 0.49994754,0.49992168 0 0 1 0.5,-0.4999 0.49994754,0.49992168 0 0 1 0.4998,0.4999 z" id="path22962"/>
        <path inkscape:connector-curvature="0" style="opacity:1;fill:#3a3640;fill-opacity:1;stroke:none;stroke-width:1;stroke-linecap:round;stroke-linejoin:round;stroke-miterlimit:4;stroke-dasharray:none;stroke-opacity:1" d="m -1363.936,1468.3878 0.9999,0 0,0.9999 -0.9999,0 z" id="path22964"/>
        <path inkscape:connector-curvature="0" style="opacity:1;fill:#3a3640;fill-opacity:1;stroke:none;stroke-width:1;stroke-linecap:round;stroke-linejoin:round;stroke-miterlimit:4;stroke-dasharray:none;stroke-opacity:1" d="m -1354.1869,1472.1372 a 0.49994754,0.49992168 0 0 1 -0.5,0.5 0.49994754,0.49992168 0 0 1 -0.4999,-0.5 0.49994754,0.49992168 0 0 1 0.4999,-0.4999 0.49994754,0.49992168 0 0 1 0.5,0.4999 z" id="path22966"/>
        <path inkscape:connector-curvature="0" id="path22968" d="m -1360.4297,1473.8869 a 0.49999752,0.49997167 0 1 0 0,0.9998 l 12.485,0 a 0.49999752,0.49997167 0 1 0 0,-0.9998 z" style="color:#000000;font-style:normal;font-variant:normal;font-weight:normal;font-stretch:normal;font-size:medium;line-height:normal;font-family:sans-serif;text-indent:0;text-align:start;text-decoration:none;text-decoration-line:none;text-decoration-style:solid;text-decoration-color:#000000;letter-spacing:normal;word-spacing:normal;text-transform:none;direction:ltr;writing-mode:lr-tb;baseline-shift:baseline;text-anchor:start;white-space:normal;clip-rule:nonzero;display:inline;overflow:visible;visibility:visible;opacity:1;isolation:auto;mix-blend-mode:normal;color-interpolation:sRGB;color-interpolation-filters:linearRGB;solid-color:#000000;solid-opacity:1;fill:#3a3640;fill-opacity:1;fill-rule:evenodd;stroke:none;stroke-width:1px;stroke-linecap:round;stroke-linejoin:round;stroke-miterlimit:4;stroke-dasharray:none;stroke-dashoffset:0;stroke-opacity:1;color-rendering:auto;image-rendering:auto;shape-rendering:auto;text-rendering:auto;enable-background:accumulate"/>
        <path inkscape:connector-curvature="0" id="path22970" d="m -1378.9277,1473.8869 a 0.49999752,0.49997167 0 1 0 0,0.9998 l 14.9846,0 a 0.49999752,0.49997167 0 1 0 0,-0.9998 z" style="color:#000000;font-style:normal;font-variant:normal;font-weight:normal;font-stretch:normal;font-size:medium;line-height:normal;font-family:sans-serif;text-indent:0;text-align:start;text-decoration:none;text-decoration-line:none;text-decoration-style:solid;text-decoration-color:#000000;letter-spacing:normal;word-spacing:normal;text-transform:none;direction:ltr;writing-mode:lr-tb;baseline-shift:baseline;text-anchor:start;white-space:normal;clip-rule:nonzero;display:inline;overflow:visible;visibility:visible;opacity:1;isolation:auto;mix-blend-mode:normal;color-interpolation:sRGB;color-interpolation-filters:linearRGB;solid-color:#000000;solid-opacity:1;fill:#3a3640;fill-opacity:1;fill-rule:evenodd;stroke:none;stroke-width:1px;stroke-linecap:round;stroke-linejoin:round;stroke-miterlimit:4;stroke-dasharray:none;stroke-dashoffset:0;stroke-opacity:1;color-rendering:auto;image-rendering:auto;shape-rendering:auto;text-rendering:auto;enable-background:accumulate"/>
        <path sodipodi:nodetypes="sssss" inkscape:connector-curvature="0" id="path22972" d="m -1362.6932,1474.3869 c 0,0.276 0.2238,0.4999 0.5,0.4999 0.2761,0 0.4999,-0.2239 0.4999,-0.4999 0,-0.2761 -0.2238,-0.4999 -0.4999,-0.4999 -0.2762,0 -0.5,0.2238 -0.5,0.4999 z" style="display:inline;opacity:1;fill:#3a3640;fill-opacity:1;stroke:none;stroke-width:1;stroke-linecap:round;stroke-linejoin:round;stroke-miterlimit:4;stroke-dasharray:none;stroke-opacity:1"/>
        <path inkscape:connector-curvature="0" id="path22974" d="m -1366.6849,1461.8887 a 0.49999752,0.49997167 0 1 0 0,0.9999 l 10.2489,0 a 0.49999752,0.49997167 0 1 0 0,-0.9999 z" style="color:#000000;font-style:normal;font-variant:normal;font-weight:normal;font-stretch:normal;font-size:medium;line-height:normal;font-family:sans-serif;text-indent:0;text-align:start;text-decoration:none;text-decoration-line:none;text-decoration-style:solid;text-decoration-color:#000000;letter-spacing:normal;word-spacing:normal;text-transform:none;direction:ltr;writing-mode:lr-tb;baseline-shift:baseline;text-anchor:start;white-space:normal;clip-rule:nonzero;display:inline;overflow:visible;visibility:visible;opacity:1;isolation:auto;mix-blend-mode:normal;color-interpolation:sRGB;color-interpolation-filters:linearRGB;solid-color:#000000;solid-opacity:1;fill:#3a3640;fill-opacity:1;fill-rule:evenodd;stroke:none;stroke-width:1px;stroke-linecap:round;stroke-linejoin:round;stroke-miterlimit:4;stroke-dasharray:none;stroke-dashoffset:0;stroke-opacity:1;color-rendering:auto;image-rendering:auto;shape-rendering:auto;text-rendering:auto;enable-background:accumulate"/>
        <path inkscape:connector-curvature="0" id="path22976" d="m -1365.1851,1457.1404 c -0.8224,0 -1.4998,0.6774 -1.4998,1.4997 l 0,2.7496 0.9999,0 0,-2.7496 c 0,-0.2819 0.2179,-0.4999 0.4999,-0.4999 l 3.7496,0 c 0.2821,0 0.5,0.218 0.5,0.4999 l 0,0.25 -0.75,0 a 0.49999752,0.49997167 0 0 0 -0.4999,0.4999 l 0,1.9997 0.9999,0 0,-1.4997 3.7496,0 0,1.4997 0.9999,0 0,-1.9997 a 0.49999752,0.49997167 0 0 0 -0.5,-0.4999 l -2.9996,0 0,-0.25 c 0,-0.8223 -0.6775,-1.4997 -1.4999,-1.4997 z" style="color:#000000;font-style:normal;font-variant:normal;font-weight:normal;font-stretch:normal;font-size:medium;line-height:normal;font-family:sans-serif;text-indent:0;text-align:start;text-decoration:none;text-decoration-line:none;text-decoration-style:solid;text-decoration-color:#000000;letter-spacing:normal;word-spacing:normal;text-transform:none;direction:ltr;writing-mode:lr-tb;baseline-shift:baseline;text-anchor:start;white-space:normal;clip-rule:nonzero;display:inline;overflow:visible;visibility:visible;opacity:1;isolation:auto;mix-blend-mode:normal;color-interpolation:sRGB;color-interpolation-filters:linearRGB;solid-color:#000000;solid-opacity:1;fill:#3a3640;fill-opacity:1;fill-rule:evenodd;stroke:none;stroke-width:1px;stroke-linecap:butt;stroke-linejoin:round;stroke-miterlimit:4;stroke-dasharray:none;stroke-dashoffset:0;stroke-opacity:1;color-rendering:auto;image-rendering:auto;shape-rendering:auto;text-rendering:auto;enable-background:accumulate"/>
      </g>
    </g>
  </g>

	<metadata>
		<rdf:RDF xmlns:rdf="http://www.w3.org/1999/02/22-rdf-syntax-ns#" xmlns:rdfs="http://www.w3.org/2000/01/rdf-schema#" xmlns:dc="http://purl.org/dc/elements/1.1/">
			<rdf:Description about="https://iconscout.com/legal#licenses" dc:title="travel-vacation-camping-car-expedition-transportation-trip" dc:description="travel-vacation-camping-car-expedition-transportation-trip" dc:publisher="Iconscout" dc:date="2017-04-18" dc:format="image/svg+xml" dc:language="en">
				<dc:creator>
					<rdf:Bag>
						<rdf:li>Vignesh Oviyan</rdf:li>
					</rdf:Bag>
				</dc:creator>
			</rdf:Description>
		</rdf:RDF>
    </metadata></svg>
