<svg xmlns="http://www.w3.org/2000/svg" viewBox="0 0 64 64"><polygon fill="#979797" points="58 35 55.7 39.47 32 34 8.3 39.47 6 35 13 33.38 32 29 51 33.38 58 35"/><path fill="#dedede" d="M55.7,39.47,46.55,57.29A4.58,4.58,0,0,1,44,58c-3,0-3-2-6-2s-3,2-6,2-3-2-6-2-3,2-6,2a4.45,4.45,0,0,1-2.52-.69L8.3,39.47,32,34Z"/><circle cx="44" cy="44" r="3" fill="#325aa6"/><path fill="#5ea7ff" d="M56,59a5.74,5.74,0,0,1-3.55-1.17A3.82,3.82,0,0,0,50,57a3.77,3.77,0,0,0-2.45.84l-.46.3A5.59,5.59,0,0,1,44,59a5.68,5.68,0,0,1-3.54-1.17,4,4,0,0,0-4.9,0,6,6,0,0,1-7.1,0,4,4,0,0,0-4.9,0A5.74,5.74,0,0,1,20,59a5.33,5.33,0,0,1-3-.84l-.52-.33A3.77,3.77,0,0,0,14,57a3.82,3.82,0,0,0-2.45.83A5.74,5.74,0,0,1,8,59a5.44,5.44,0,0,1-2.42-.51,1,1,0,1,1,.86-1.8A3.54,3.54,0,0,0,8,57a3.82,3.82,0,0,0,2.45-.83A5.74,5.74,0,0,1,14,55a5.74,5.74,0,0,1,3.55,1.17l.45.29A3.52,3.52,0,0,0,20,57a3.82,3.82,0,0,0,2.45-.83,6,6,0,0,1,7.1,0,4,4,0,0,0,4.9,0,6,6,0,0,1,7.11,0A3.76,3.76,0,0,0,44,57,3.56,3.56,0,0,0,46,56.43l.4-.25a6,6,0,0,1,7.11,0A3.82,3.82,0,0,0,56,57a3.57,3.57,0,0,0,1.58-.31,1,1,0,1,1,.86,1.8A5.49,5.49,0,0,1,56,59Z"/><polygon fill="#dedede" points="51 26 51 33.38 32 29 13 33.38 13 26 17 24.95 32 21 47 24.95 51 26"/><polygon fill="#979797" points="43 16 47 24.95 32 21 17 24.95 21 16 43 16"/><rect width="10" height="6" x="27" y="10" fill="#dedede"/><rect width="14" height="4" x="25" y="6" fill="#979797" rx="2" ry="2"/><path fill="#979797" d="M32,55a1,1,0,0,1-1-1V34a1,1,0,0,1,2,0V54A1,1,0,0,1,32,55Z"/><circle cx="20" cy="44" r="3" fill="#325aa6"/></svg>