<svg height="512" viewBox="0 0 46 59" width="512" xmlns="http://www.w3.org/2000/svg"><g id="Page-1" fill="none" fill-rule="evenodd"><g id="012---Dinosaur" fill-rule="nonzero" transform="translate(-1)"><path id="Shape" d="m39.4 35.56c3.4103628 2.6728599 5.9367286 6.3108266 7.25 10.44 1.93 6.77-4.55 7.93-7.69 6.19h-29.92c-3.14 1.74-9.62.58-7.69-6.19 1.31327143-4.1291734 3.83963718-7.7671401 7.25-10.44z" fill="#33907c"/><path id="Shape" d="m41 46c-.0445275 2.7724242-1.1337755 5.4259036-3.05 7.43-.2.23-.42.45-.64.66l-6.59 2.91-4.22 1.86h-.01c-1.6547522.1866685-3.3252478.1866685-4.98 0l-4.22-1.86-6.6-2.91c-.22-.21-.44-.43-.64-.66-4.08976642-4.1422175-4.06294903-10.8108095.06-14.92.4204249-.4568144.8714682-.8844702 1.35-1.28h25.08c.4785318.3955298.9295751.8231856 1.35 1.28 1.9534723 2.008988 3.0659309 4.6881891 3.11 7.49z" fill="#26b99a"/><path id="Shape" d="m37.89 38.51c-4.2496545 2.3465388-9.0358975 3.5491298-13.89 3.49-4.8541025.0591298-9.6403455-1.1434612-13.89-3.49.4204249-.4568144.8714682-.8844702 1.35-1.28h25.08c.4785318.3955298.9295751.8231856 1.35 1.28z" fill="#14a085"/><path id="Shape" d="m22 54v2c0 .5522847-.4477153 1-1 1h-3.71l-6.6-2.91c-.22-.21-.44-.43-.64-.66.2755403-1.41133 1.512024-2.4298573 2.95-2.43h6c1.6568542 0 3 1.3431458 3 3z" fill="#14a085"/><path id="Shape" d="m37.95 53.43c-.2.23-.42.45-.64.66l-6.59 2.91h-3.72c-.5522847 0-1-.4477153-1-1v-2c0-1.6568542 1.3431458-3 3-3h6c1.437976.0001427 2.6744597 1.01867 2.95 2.43z" fill="#14a085"/><path id="Shape" d="m46 24.47c0 8.58-9.85 15.53-22 15.53s-22-6.95-22-15.53c0-7.79 8.12-15.84 18.71-17.25l1.39-4.68c.1917327-.89614934.9835694-1.5364917 1.9-1.5364917s1.7082673.64034236 1.9 1.5364917l1.39 4.68c10.59 1.41 18.71 9.46 18.71 17.25z" fill="#26b99a"/><g fill="#ecf0f1"><path id="Shape" d="m12.82 27c.1211006.3193958.1821256.6584234.18 1 0 1.6568542-1.3431458 3-3 3-1.65685425 0-3-1.3431458-3-3-.00212561-.3415766.05889936-.6806042.18-1z"/><path id="Shape" d="m21.82 27c.1211006.3193958.1821256.6584234.18 1 0 1.6568542-1.3431458 3-3 3s-3-1.3431458-3-3c-.0021256-.3415766.0588994-.6806042.18-1z"/><path id="Shape" d="m31.82 27c.1211006.3193958.1821256.6584234.18 1 0 1.6568542-1.3431458 3-3 3s-3-1.3431458-3-3c-.0021256-.3415766.0588994-.6806042.18-1z"/><path id="Shape" d="m40.82 27c.1211006.3193958.1821256.6584234.18 1 0 1.6568542-1.3431458 3-3 3s-3-1.3431458-3-3c-.0021256-.3415766.0588994-.6806042.18-1z"/></g><circle id="Oval" cx="17" cy="19" fill="#35495e" r="3"/><circle id="Oval" cx="17" cy="18.5" fill="#3f5c6c" r="2.5"/><circle id="Oval" cx="30" cy="19" fill="#35495e" r="3"/><circle id="Oval" cx="30" cy="18.5" fill="#3f5c6c" r="2.5"/><path id="Shape" d="m42 28h-36c-.55228475 0-1-.4477153-1-1s.44771525-1 1-1h36c.5522847 0 1 .4477153 1 1s-.4477153 1-1 1z" fill="#14a085"/><path id="Shape" d="m29 14c-.4425957-.0003649-.8323029-.2916283-.958-.716l-3.1-10.463c-.0633769-.46983182-.4644129-.8204032-.9385-.8204032s-.8751231.35057138-.9385.8204032l-3.1 10.463c-.0901808.3554923-.367725.6330966-.7231977.7233543-.3554728.0902578-.7318324-.0213144-.9806814-.2907239-.2488491-.2694095-.3302555-.653425-.2121209-1.0006304l3.1-10.463c.3167749-1.32073202 1.4978102-2.25199416 2.856-2.25199416s2.5392251.93126214 2.856 2.25199416l3.1 10.463c.0897091.3028679.0310471.6303154-.1582254.883204-.1892725.2528885-.4869009.4014835-.8027746.400796z" fill="#14a085"/><path id="Shape" d="m34 52c-.1087297 1.3117895-.3533748 2.6087438-.73 3.87l-6.77 2.99h-.01c-1.6547522.1866685-3.3252478.1866685-4.98 0l-6.78-2.99c-.3766252-1.2612562-.6212703-2.5582105-.73-3.87 0-4.42 4.48-8 10-8s10 3.58 10 8z" fill="#65ddb9"/><path id="Shape" d="m13 53h6c1.6568542 0 3 1.3431458 3 3v2c0 .5522847-.4477153 1-1 1h-10c-.5522847 0-1-.4477153-1-1v-2c0-1.6568542 1.3431458-3 3-3z" fill="#26b99a"/><path id="Shape" d="m29 53h6c1.6568542 0 3 1.3431458 3 3v2c0 .5522847-.4477153 1-1 1h-10c-.5522847 0-1-.4477153-1-1v-2c0-1.6568542 1.3431458-3 3-3z" fill="#26b99a"/><circle id="Oval" cx="16" cy="18" fill="#ecf0f1" r="1"/><circle id="Oval" cx="29" cy="18" fill="#ecf0f1" r="1"/></g></g></svg>