<svg xmlns="http://www.w3.org/2000/svg" enable-background="new 0 0 131 131" viewBox="0 0 131 131"><path fill="#EF8FAF" d="M126.8994522,74.6302261c2.4048233-2.9879532,2.7340012-7.380722,1.3180008-10.9451141
			c-1.7132263-4.3126945-3.8390121-6.9809608-6.0803528-9.6930389c-4.5919342-5.5563316-9.4172592-11.1547966-15.724556-14.6448975
			c-4.4538574-2.4645157-9.4586716-3.7875938-14.4894867-4.5641289c-14.730278-2.2736931-30.7502365,0.3476601-42.2992096,9.7684021
			c-5.4596825,4.4535789-9.7579613,10.2484741-15.478054,14.3623238c-2.0801735,1.4960442-4.40765,2.7801323-6.9528275,3.0765991
			c-2.5451775,0.296463-6.178091-0.0612564-7.2905827-2.3692474c-1.0052204-2.0854492-2.0104427-4.1709023-3.0156631-6.2563515
			c-1.0898161-2.260952-2.3286285-4.6777458-4.574873-5.798008c-1.6636038-0.8296852-3.6647758-0.7956543-5.4329839-0.2216492
			c-1.7311015,0.5619621-3.3718233,1.6828957-4.1256723,3.3393059c-1.0602338,2.3296547-0.7916067,4.3533363-0.5779161,6.2227936
			c2.1652079,18.9423485,16.737318,31.2874641,44.4582825,33.3031807
			c19.4568748,1.4148026,37.2921867,0.947113,57.6425285-3.3444061
			C115.8772507,84.4195175,127.2022781,74.9128418,126.8994522,74.6302261z"/><path fill="#F8A3BC" d="M126.3941879,74.6302261c0.3037949,0.2834549-11.0256348,9.7892914-22.6235046,12.2340851
			c-20.3505325,4.2922897-38.1851044,4.7630234-57.6446571,3.3457565
			c-20.9986477-1.5235672-34.4491615-8.9794006-40.6809158-20.7376862
			c7.4162598,6.4738998,18.523098,10.5434723,33.4265594,11.6266785
			c19.4544907,1.4172592,37.2941246,0.9465332,57.6397133-3.3457565
			c11.6028137-2.4448013,22.9271774-11.9506378,22.6235123-12.2340851c2.409668-2.9863701,2.7386703-7.3798981,1.3211975-10.9433365
			c-0.7593536-1.9082298-1.5996552-3.4925346-2.495697-4.9047623c1.2554474,1.4172935,2.4704819,2.8699913,3.6701889,4.3226891
			c2.2425766,2.7079849,4.3688507,5.3805618,6.0798569,9.6930847
			C129.1279144,67.2503281,128.7987976,71.6438599,126.3941879,74.6302261z"/><ellipse cx="52.704" cy="60.292" fill="#9B9ACE" rx="4.303" ry="5.378"/><path fill="#C3C3E2" d="M54.2806206,64.6868362c-0.4580612,0.2425156-0.965683,0.377243-1.4956818,0.377243
			c-2.1066055,0-3.8179932-2.1377716-3.8179932-4.7696228c0-2.6363182,1.7113876-4.7741203,3.8179932-4.7741203
			c0.3368835,0,0.664772,0.0538902,0.9791718,0.1572075c-1.365509,0.7230721-2.3266983,2.416256-2.3266983,4.3923531
			C51.4374123,62.2840424,52.645668,64.1433945,54.2806206,64.6868362z"/><ellipse cx="69.03" cy="59.09" fill="#9B9ACE" rx="4.303" ry="5.378"/><ellipse cx="84.217" cy="57.318" fill="#9B9ACE" rx="4.303" ry="5.378"/><path fill="#C3C3E2" d="M70.7136612 63.4627457c-.4580612.2425156-.9656906.377243-1.4956818.377243-2.1066055 0-3.8179932-2.1377754-3.8179932-4.7696228 0-2.6363182 1.7113876-4.7741203 3.8179932-4.7741203.3368835 0 .664772.0538902.9791718.1572075-1.365509.7230721-2.3266983 2.4162521-2.3266983 4.3923531C67.8704529 61.0599518 69.0787048 62.9193039 70.7136612 63.4627457zM85.7318954 61.7131081c-.4580612.2425117-.965683.377243-1.4956818.377243-2.1066055 0-3.8179932-2.1377792-3.8179932-4.7696266 0-2.6363182 1.7113876-4.7741203 3.8179932-4.7741203.3368835 0 .664772.0538902.9791718.1572075-1.365509.7230721-2.3266983 2.4162521-2.3266983 4.3923531C82.8886871 59.3103104 84.0969467 61.1696663 85.7318954 61.7131081z"/><path fill="#F8A3BC" d="M119.2423401,53.7365074c-3.2632675-3.2767258-6.7844391-6.2992592-10.9899292-8.3330727
			c-4.0170975-1.9396782-8.4904099-2.9001236-12.9637299-3.4085617
			c-13.1024857-1.4783096-26.1081924,2.7229271-37.1353264,9.4441452
			c-8.0175667,4.8868332-20.2043839,5.2446785-20.2043839,5.2446785l0.2381592-0.1694794
			c4.5096779-4.9817543,8.5697174-8.6249657,13.2612152-12.5231743c9.928566-8.2483597,24.0328407-10.9225082,37.1353264-9.4347763
			c4.4832458,0.499073,8.9466324,1.4688835,12.9736557,3.4085617c5.6833649,2.7494926,10.1268921,7.3161926,14.362175,11.845253
			C117.0699768,51.0435638,118.1909103,52.2676239,119.2423401,53.7365074z"/><path fill="#9B9ACE" d="M93.7928543,40.1087914c-0.7411804,2.6779404-0.5262756,5.3203239,0.7890244,7.7679749
			c1.345993,2.5047569,3.9137573,4.1859779,6.6380463,5.0015717c2.7242966,0.8155975,5.6169662,0.8561821,8.4586945,0.7480659
			c3.486969-0.1326675,7.0710449-0.509819,10.1526184-2.1468391C116.9108124,46.815506,96.7633972,29.3759155,93.7928543,40.1087914
			z"/><path fill="#C3C3E2" d="M110.4753723,53.0781937c-0.3192062,0.0193596-0.6433182,0.0338516-0.9626465,0.0435333
			c-2.7553024,0.1015244-5.564682,0.0628624-8.2071533-0.7156754c-2.6423492-0.778511-5.1325302-2.3839073-6.4389572-4.7774925
			c-1.2770462-2.3355293-1.4832916-4.859684-0.7662277-7.4225006c0.9626465-3.4138718,3.7720261-3.8442383,7.1953506-2.7272377
			c-0.8742676,0.5029144-1.5372467,1.3877907-1.915451,2.7272377c-0.7170639,2.5628166-0.5108185,5.0869713,0.7662354,7.4225006
			c1.3064194,2.3935852,3.7966003,3.9989815,6.4389496,4.7774925
			C107.8526917,52.7783928,109.159111,52.9814758,110.4753723,53.0781937z"/><path fill="#FBE000" d="M19.8579178,65.8613358c-0.5343418,1.3713455-7.5302114,7.4659653-10.4542866,7.6593018
				c-1.1430578,0.0755768-2.0096045,0.202652-2.8348541-0.4914017c-0.366847-0.3085251-0.6025882-0.7460403-0.7716498-1.1945496
				c-0.7704382-2.0438843-0.2004099-4.5240479,1.3851218-6.0265884L19.8579178,65.8613358z"/><path fill="#FBE000" d="M19.6719437,65.923317c-0.5343418,1.3713531-7.5302114,7.4659729-10.4542866,7.6593018
			c-1.1430588,0.0755768-2.0096049,0.202652-2.8348546-0.491394c-0.3668466-0.3085251-0.6025877-0.746048-0.7716498-1.1945496
			c-0.7704382-2.0438919-0.2004099-4.5240479,1.3851218-6.0265961L19.6719437,65.923317z"/><path fill="#FDE4CB" d="M74.1349487,94.5635452h-8.2700729c-3.4011688,0-6.1583633-2.7571945-6.1583633-6.1583633v-0.0000076
			c0-3.4011688,2.7571945-6.1583633,6.1583633-6.1583633h8.2700729c3.4011688,0,6.1583633,2.7571945,6.1583633,6.1583633v0.0000076
			C80.2933121,91.8063507,77.5361176,94.5635452,74.1349487,94.5635452z"/><ellipse cx="76.982" cy="88.469" fill="#FFEFE1" rx="2.228" ry="3.881"/><path fill="#FDE4CB" d="M126.559639,75.0995636c0.0556107,0.0523834-0.2480545,0.3981934-0.850563,0.9378204
			c-1.9995956,1.6870651-4.4750137,2.6877518-7.1530075,2.6877518c-6.6619797,0-12.0635681-6.1770935-12.0635681-13.7950211
			c0-7.3611755,7.0702896-13.1715164,13.4135208-13.5801926c2.6999054,3.1872253,3.5858154,4.4970436,5.4791183,7.3454742
			c0.8960419,1.4617462,1.7363434,3.1016388,2.495697,5.0768585
			C129.2983093,67.4606934,128.9693146,72.0083771,126.559639,75.0995636z"/><path fill="#FBE000" d="M84.279892,69.2134094c-1.6864243,4.3280869-5.2192764,10.3984528-8.41436,13.7703629
			c-3.4188309,3.6080475-13.33255,12.7612381-20.0401344,13.6470261c-3.584343,0.4733429-6.3424873,0.6395874-8.9470482-1.5508957
			c-1.1577988-0.973732-1.9018173-2.3545914-2.4353943-3.7701035c-2.4315681-6.4506836-0.6325073-14.2782898,4.3715668-19.0204391
			L84.279892,69.2134094z"/><path fill="#FFEFE1" d="M127.27845,69.378952c-0.3718643,3.5280685-2.6103592,6.2148285-5.5445175,6.4887924
			c-3.6814041,0.3437347-8.1644211-3.1075134-9.2773895-8.8924408c-1.442688-7.4987564,3.4648895-12.050499,9.0781631-9.1013412
			C125.585701,60.0023155,127.7140656,65.2461014,127.27845,69.378952z"/><path fill="#FFF036" d="M75.7693024,70.1895142c0.8793716-0.0795517,1.5089417,0.8231583,1.1342545,1.6225739
			c-1.2923355,2.757309-3.2316132,5.9748611-5.0441132,7.8876724c-2.3821259,2.5139694-9.2896996,8.8916245-13.9633293,9.508812
			c-2.2542877,0.297699-4.039547,0.4210587-5.7004433-0.6801758c-1.0157166-0.6734543-1.715023-1.721611-2.1637306-2.8546066
			c-1.7414818-4.3972397-0.6208229-9.7617722,2.6814613-13.1326828c0.18853-0.1924438,0.4451027-0.3062134,0.7134285-0.3304825
			L75.7693024,70.1895142z"/><path fill="#553045" d="M111.3154907,47.3064156c-0.2705078-1.5192261-1.2695313-2.8563232-2.5153809-3.7749634
			c-1.2563477-0.9046631-2.833252-1.447998-4.3623047-1.2446289c1.4057617,0.5849609,2.6430664,1.2144165,3.7729492,2.0519409
			C109.3516235,45.1614571,110.3276978,46.1467476,111.3154907,47.3064156z"/><path fill="#553045" d="M128.9246216,63.4416695c-1.9822235-5.8508415-13.080719-19.7395134-22.1499023-24.75
			c-13.1429825-7.2944584-40.3074875-8.8383408-57.6199989,5.2799683
			c-7.2773056,5.9218292-14.5715752,16.4310265-22.0499249,17.2700195c-2.630127,0.3099976-5.670166-0.1699829-6.5300293-1.9500122
			c-3.6200027-7.5172806-5.9405079-15.2347908-13.9300537-12.6599731c-4.7489862,1.5534248-5.8088531,5.2653618-5.2299805,10.210022
			c0.2647779,1.3855286,0.4750088,5.9624596,3.25,11.8299599c-0.2399902,1.1600342-0.1800537,2.3800049,0.2399902,3.4899902
			c0.6655493,1.7571411,1.7619662,2.1052246,3.2500005,2.2300415c6.8900146,9.0299683,18.7799072,14.5699463,35.2600098,16.289978
			c1.9658623,6.6671295,7.6281319,8.2049942,14.1199951,6.3499756c0.2336502-0.2336502,0.2169685,0.2215271,3.7399902-1.539978
			c0.0818176-0.0818176,1.073082-0.5520172,1.5800781-0.8900146c2.3020821,1.1638565,3.6584511,0.5262833,11.279789,0.710022
			c2.9101563,0,5.4001465-1.7999878,6.4101563-4.3500366c7.9099121-0.6399536,15.7700195-1.75,23.8798828-3.3599854
			c11.2693939-2.2322922,22.4395981-11.147171,22.8400879-12.1900024
			C130.018631,71.9734421,130.2972412,67.4827499,128.9246216,63.4416695z M107.2446899,64.9316635
			c0-6.5367432,6.2385788-12.2063866,12.3400879-12.7999916c0.0600586,0.0800171,0.1298828,0.1499634,0.1799316,0.2199707
			c5.5485992,6.6053085,11.481781,15.4450951,6.2199707,22.2600136
			C118.1978455,82.3984833,107.2446899,75.6296082,107.2446899,64.9316635z M118.3845825,50.7816353
			c-1.6398926,0.3000488-3.2998047,0.9100342-4.8498535,1.7900391
			c-16.0235977,2.2356911-20.9860764-5.0765114-19.0200195-12.2600098
			C96.8865585,31.7320442,113.5035172,44.8690605,118.3845825,50.7816353z M3.434629,50.9916573
			c1.2604141-2.776741,5.7946935-4.1598091,8.5400391-2.75c2.7442122,1.3581772,3.6933041,4.4891167,7.25,11.710022
			c1.4740601,3.0416603,8.0464191,4.8291588,15.3601055-0.4299927c5.7693596-4.1389198,10.0883064-9.9625092,15.5100098-14.3900146
			c12.4304581-10.1359634,30.3021507-12.3600731,45.8798866-8.8200073
			c-3.7877579,1.5810471-4.174263,7.9921646-2.0500488,11.9199829c3.1545258,5.878643,10.4203186,6.5264893,17.1101074,6.0800171
			c-2.9499512,2.460022-5.0900879,5.9799805-5.2700195,10.0399818c-3.5400391,0.8099976-7.0998535,1.5700073-10.7199707,2.1500244
			c-31.7747574,5.1049118-55.550209,3.1368942-79.4399414,4.5c5.5649452-4.2982559,5.0497017-5.4756088,5.3498535-5.8900146
			L6.8847022,65.0616684l-0.0999756,0.0900269c-0.4311924,0.117485-1.1175547,1.0930481-1.3500977,1.5
			C3.8298755,62.86063,1.7291025,54.7260857,3.434629,50.9916573z M8.8847027,72.8016586
			c0.0100098,0.0200195,0.0200195,0.0400391,0.0400391,0.0499878c-1.4451489,0.083931-2.0734692,0.1196823-2.6099858-1.2199707
			c-0.6028194-1.6017151-0.2754745-3.6125946,0.9899902-5.0100098c14.698185,0.0676498,9.8537292,0.0453568,10.8599854,0.0499878
			C16.6219482,68.2667007,11.5158758,72.8016586,8.8847027,72.8016586z M9.9646587,74.2116928
			c1.0596676-0.211937,2.7474718-1.1968842,3.6501465-1.7900391c8.622633,0.5476151,20.2899799,0.2822876,34.0299072-0.0299683
			c-4.4965401,4.9057693-5.7515755,11.1255341-4.6300049,16.7299805
			C27.7647076,87.4416733,16.6246929,82.3816757,9.9646587,74.2116928z M55.7246666,95.8916245
			c-5.8499603,0.7666931-9.5979385-0.0077133-11.119873-6.6099854c-1.420166-5.7099609,0.329834-12.1399536,4.539917-16.2699585
			c0.1239014-0.0095978,33.5601082-2.7081299,33.8800087-2.7399902
			c-3.0789185,6.8336792-6.6627731,12.4282455-16.2399902,19.8299561h-0.0100098
			C63.9530602,92.3012161,59.2823982,95.4111176,55.7246666,95.8916245z M65.8648071,93.8116684
			c-0.4899902,0-0.9699707-0.0700073-1.420166-0.1900024c0.7875977-0.5090637,2.0700912-1.4266205,2.8701172-2.0200195
			c0-0.0100098,0.0100098-0.0100098,0.0100098-0.0100098c0.1835785-0.1469574,1.7806244-1.3709793,1.9399414-1.5299683h0.0100098
			c1.9401627-1.6158218,4.5242233-3.792099,7.1201172-6.5499878c2.9892807,1.3500443,3.9741898,4.9714432,2.4199219,7.5799561
			C76.4273682,95.3218384,71.4963837,93.3013916,65.8648071,93.8116684z M104.1345825,86.1316757
			c-7.869873,1.5599976-15.5,2.6499634-23.1799316,3.2999878c0.4804764-2.640213-0.8438721-5.6337662-3.5200195-7.0899658
			c2.6331787-3.1518936,5.5665207-8.0535126,7.2900391-12.2400513c7.0800781-0.7299805,14.2099609-1.7199707,21.1401367-3.2399902
			c0.8581543,7.3526459,6.6989517,13.2689514,13.8798828,12.5499878
			C115.664856,82.0516586,110.0747681,84.951683,104.1345825,86.1316757z"/><path fill="#553045" d="M52.7046471 66.4216537c2.7800293 0 5.0500488-2.7500038 5.0500488-6.1300087s-2.2700195-6.1300049-5.0500488-6.1300049c-2.789917 0-5.0499268 2.75-5.0499268 6.1300049S49.9147301 66.4216537 52.7046471 66.4216537zM52.7046471 55.6616402c1.9602051 0 3.5500488 2.0800171 3.5500488 4.6300049 0 2.5500488-1.5898438 4.6300087-3.5500488 4.6300087-1.9599609 0-3.5499268-2.0799599-3.5499268-4.6300087C49.1547203 57.7416573 50.7446861 55.6616402 52.7046471 55.6616402zM69.0247192 65.2216415c2.7900391 0 5.0600586-2.7500038 5.0600586-6.1299477 0-3.3800049-2.2700195-6.1300049-5.0600586-6.1300049-2.7800293 0-5.0500526 2.75-5.0500526 6.1300049C63.9746666 62.4716377 66.2446899 65.2216415 69.0247192 65.2216415zM69.0247192 54.461689c1.9599609 0 3.5600586 2.0799561 3.5600586 4.6300049 0 2.5499878-1.6000977 4.6299438-3.5600586 4.6299438-1.9499512 0-3.5500488-2.0799561-3.5500488-4.6299438C65.4746704 56.5416451 67.0747681 54.461689 69.0247192 54.461689zM84.2146606 63.4416695c2.7900391 0 5.0600586-2.7399902 5.0600586-6.1199951s-2.2700195-6.1300049-5.0600586-6.1300049c-2.7800293 0-5.0498047 2.75-5.0498047 6.1300049S81.4346313 63.4416695 84.2146606 63.4416695zM84.2146606 52.6916695c1.9599609 0 3.5600586 2.0800171 3.5600586 4.6300049s-1.6000977 4.6199951-3.5600586 4.6199951-3.5498047-2.0700073-3.5498047-4.6199951S82.2546997 52.6916695 84.2146606 52.6916695z"/></svg>