<?xml version="1.0" encoding="UTF-8"?><svg xmlns="http://www.w3.org/2000/svg" xmlns:xlink="http://www.w3.org/1999/xlink" version="1.1" id="Layer_1" x="0px" y="0px" viewBox="0 0 24 24" xml:space="preserve"><path fill="#303C42" d="M12 0C6.701 0 3 3.29 3 8c0 3.347 1.492 6.018 2.744 7.669.997 1.315 2.193 2.431 3.354 3.205l.722 2.168a.49.49 0 0 0-.214.15.498.498 0 0 0-.09.43l.5 2A.5.5 0 0 0 10.5 24h3a.5.5 0 0 0 .485-.379l.5-2a.498.498 0 0 0-.091-.429.49.49 0 0 0-.212-.15l.733-2.176c1.157-.774 2.348-1.887 3.34-3.197C19.509 14.018 21 11.347 21 8c0-4.71-3.701-8-9-8zm1.141 21h-2.28l-.47-1.407c.582.255 1.132.407 1.609.407.48 0 1.032-.153 1.617-.41L13.14 21z"/><path fill="#FFCA28" d="M15 8c0 3.646-.776 6.435-1.307 7.923a18.74 18.74 0 0 1-3.386 0C9.777 14.435 9 11.646 9 8c0-4.596 1.51-7 3-7s3 2.404 3 7z"/><path opacity="0.2" fill="#FFF" d="M9.5 9.5c0-4.596 1.51-7 3-7 .76 0 1.522.633 2.09 1.855C14.043 2.16 13.023 1 12 1c-1.49 0-3 2.404-3 7 0 3.646.776 6.435 1.307 7.923l.034.002A24.506 24.506 0 0 1 9.5 9.5z"/><path fill="#FF8F00" d="M4 8c0-3.408 2.253-5.96 5.695-6.744C8.633 2.616 8 4.998 8 8c0 3.43.665 6.142 1.203 7.783-1.087-.175-2.036-.448-2.728-.805C5.33 13.443 4 11.01 4 8z"/><path opacity="0.2" fill="#FFF" d="M5 9.717C5 7.1 6.336 4.997 8.512 3.802c.288-1.042.686-1.91 1.183-2.546C6.253 2.039 4 4.592 4 8c0 2.726 1.09 4.97 2.145 6.51C5.498 13.175 5 11.556 5 9.717z"/><path fill="#A1887F" d="M13.11 23h-2.22l-.25-1h2.72z"/><path fill="#F2F2F2" d="M12 19c-.951 0-2.61-.91-4.181-2.481C9.03 16.828 10.482 17 12 17s2.97-.172 4.181-.481C14.61 18.089 12.951 19 12 19z"/><path fill="#FF8F00" d="M17.525 14.978c-.692.357-1.641.63-2.728.805C15.335 14.142 16 11.43 16 8c0-3.002-.633-5.384-1.695-6.744C17.747 2.039 20 4.592 20 8c0 3.011-1.33 5.443-2.475 6.978z"/><path fill="#FF8F00" d="M17.525 14.978c-.692.357-1.641.63-2.728.805C15.335 14.142 16 11.43 16 8c0-3.002-.633-5.384-1.695-6.744C17.747 2.039 20 4.592 20 8c0 3.011-1.33 5.443-2.475 6.978z"/><path opacity="0.1" d="M19.195 10.217c0 .913-.132 1.765-.334 2.562C19.505 11.447 20 9.833 20 8c0-3.408-2.253-5.96-5.695-6.744.569.728 1.009 1.757 1.3 3.01 2.22 1.186 3.59 3.304 3.59 5.951z"/><linearGradient id="SVGID_1_" gradientUnits="userSpaceOnUse" x1="2.4558342" y1="7.3441501" x2="18.9234028" y2="15.0231037"><stop offset="0" stop-color="#FFF" stop-opacity="0.2"/><stop offset="1" stop-color="#FFF" stop-opacity="0"/></linearGradient><path fill="url(#SVGID_1_)" d="M12 0C6.701 0 3 3.29 3 8c0 3.347 1.492 6.018 2.744 7.669.997 1.315 2.193 2.431 3.354 3.205l.722 2.168a.49.49 0 0 0-.214.15.498.498 0 0 0-.09.43l.5 2A.5.5 0 0 0 10.5 24h3a.5.5 0 0 0 .485-.379l.5-2a.498.498 0 0 0-.091-.429.49.49 0 0 0-.212-.15l.733-2.176c1.157-.774 2.348-1.887 3.34-3.197C19.509 14.018 21 11.347 21 8c0-4.71-3.701-8-9-8zm1.141 21h-2.28l-.47-1.407c.582.255 1.132.407 1.609.407.48 0 1.032-.153 1.617-.41L13.14 21z"/><metadata><rdf:RDF xmlns:rdf="http://www.w3.org/1999/02/22-rdf-syntax-ns#" xmlns:rdfs="http://www.w3.org/2000/01/rdf-schema#" xmlns:dc="http://purl.org/dc/elements/1.1/"><rdf:Description about="https://iconscout.com/legal#licenses" dc:title="travel,tourism,air,baloon,fly" dc:description="travel,tourism,air,baloon,fly" dc:publisher="Iconscout" dc:date="2017-11-27" dc:format="image/svg+xml" dc:language="en"><dc:creator><rdf:Bag><rdf:li>Those Icons</rdf:li></rdf:Bag></dc:creator></rdf:Description></rdf:RDF></metadata></svg>