<svg xmlns="http://www.w3.org/2000/svg" id="Layer_1" enable-background="new 0 0 135 135" viewBox="0 0 135 135"><rect width="128" height="3.16" x="3.5" y="128.34" fill="#7a8490"/><rect width="59.64" height="66.35" x="37.68" y="7.933" fill="#fcc"/><polygon points="97.32 49.868 97.32 7.933 37.68 7.933 37.68 10.844 76.712 49.868" opacity=".08"/><rect width="70.38" height="78.31" x="32.31" y="50.034" fill="#fcc"/><polygon points="102.69 50.034 102.69 123.844 32.31 53.474 32.31 50.034" opacity=".08"/><rect width="71.971" height="2.718" x="31.514" y="119.914" fill="#ffe1e1"/><rect width="71.971" height="2.718" x="31.514" y="114.206" fill="#ffe1e1"/><rect width="71.971" height="2.718" x="31.514" y="77.455" fill="#ffe1e1"/><rect width="62.855" height="2.718" x="36.072" y="30.437" fill="#ffe1e1"/><rect width="62.855" height="2.718" x="36.072" y="42.092" fill="#ffe1e1"/><rect width="62.855" height="2.718" x="36.072" y="36.264" fill="#ffe1e1"/><rect width="62.855" height="2.718" x="36.072" y="30.437" fill="#ffe1e1"/><rect width="62.855" height="2.718" x="36.072" y="42.092" fill="#ffe1e1"/><rect width="62.855" height="2.718" x="36.072" y="36.264" fill="#ffe1e1"/><polygon points="98.93 30.433 98.93 33.154 60 33.154 57.28 30.433" opacity=".08"/><polygon points="98.93 42.094 98.93 44.814 71.66 44.814 68.94 42.094" opacity=".08"/><polygon points="98.93 36.264 98.93 38.984 65.83 38.984 63.11 36.264" opacity=".08"/><rect width="71.971" height="2.718" x="31.514" y="125.622" fill="#ffe1e1"/><rect width="77.253" height="5.227" x="28.874" y="44.809" fill="#ab5033"/><rect width="65.463" height="4.43" x="34.769" y="3.5" fill="#ab5033"/><rect width="10.94" height="16.8" x="43.82" y="13.634" fill="#ab5033"/><polygon fill="#bf6149" points="55.617 13.661 56.618 10.719 41.959 10.719 42.96 13.661"/><polygon fill="#d37562" points="50.05 14.048 51.051 10.332 47.527 10.332 48.528 14.048"/><rect width="8.569" height="14.442" x="45.004" y="14.814" fill="#eeebfe"/><rect width="8.569" height=".707" x="45.004" y="18.119" fill="#ab5033"/><rect width=".707" height="10.784" x="48.936" y="18.473" fill="#ab5033"/><rect width="10.933" height="16.804" x="62.034" y="13.633" fill="#ab5033"/><polygon fill="#bf6149" points="73.829 13.661 74.83 10.719 60.17 10.719 61.171 13.661"/><polygon fill="#d37562" points="68.261 14.048 69.262 10.332 65.738 10.332 66.739 14.048"/><rect width="8.569" height="14.442" x="63.215" y="14.814" fill="#eeebfe"/><rect width="8.569" height=".707" x="63.215" y="18.119" fill="#ab5033"/><rect width=".707" height="10.784" x="67.147" y="18.473" fill="#ab5033"/><rect width="10.933" height="16.804" x="80.245" y="13.633" fill="#ab5033"/><polygon fill="#bf6149" points="92.04 13.661 93.041 10.719 78.382 10.719 79.383 13.661"/><polygon fill="#d37562" points="86.472 14.048 87.473 10.332 83.949 10.332 84.95 14.048"/><rect width="8.569" height="14.442" x="81.427" y="14.814" fill="#eeebfe"/><rect width="8.569" height=".707" x="81.427" y="18.119" fill="#ab5033"/><rect width=".707" height="10.784" x="85.359" y="18.473" fill="#ab5033"/><rect width="12.764" height="19.62" x="39.855" y="57.836" fill="#ab5033"/><polygon fill="#bf6149" points="53.627 57.868 54.795 54.433 37.68 54.433 38.848 57.868"/><polygon fill="#d37562" points="47.126 58.32 48.295 53.981 44.18 53.981 45.349 58.32"/><rect width="10.005" height="16.862" x="41.235" y="59.215" fill="#eeebfe"/><rect width="10.005" height=".826" x="41.235" y="63.073" fill="#ab5033"/><rect width=".826" height="12.591" x="45.826" y="63.486" fill="#ab5033"/><polygon points="52.62 57.836 52.62 71.639 39.855 58.874 39.855 57.836" opacity=".08"/><g><rect width="12.764" height="19.62" x="61.118" y="57.836" fill="#ab5033"/><polygon fill="#bf6149" points="74.889 57.868 76.058 54.433 58.942 54.433 60.111 57.868"/><polygon fill="#d37562" points="68.389 58.32 69.557 53.981 65.443 53.981 66.611 58.32"/><rect width="10.005" height="16.862" x="62.498" y="59.215" fill="#eeebfe"/><rect width="10.005" height=".826" x="62.498" y="63.073" fill="#ab5033"/><rect width=".826" height="12.591" x="67.088" y="63.486" fill="#ab5033"/></g><g><rect width="12.764" height="19.62" x="82.38" y="57.836" fill="#ab5033"/><polygon fill="#bf6149" points="96.152 57.868 97.32 54.433 80.205 54.433 81.373 57.868"/><polygon fill="#d37562" points="89.651 58.32 90.82 53.981 86.705 53.981 87.874 58.32"/><rect width="10.005" height="16.862" x="83.76" y="59.215" fill="#eeebfe"/><rect width="10.005" height=".826" x="83.76" y="63.073" fill="#ab5033"/><rect width=".826" height="12.591" x="88.351" y="63.486" fill="#ab5033"/></g><g><rect width="2.87" height="3.307" x="54.726" y="41.506" fill="#44433f"/><rect width="2.87" height="3.307" x="77.404" y="41.506" fill="#44433f"/></g><rect width="37.832" height="12.107" x="48.584" y="29.4" fill="#7860dc"/><g><path fill="#fff" d="M58.3171425 32.4854088v5.9353409h-1.1019707v-2.5436935h-3.0695801v2.5436935h-1.102314v-5.9353409h1.102314v2.4504509h3.0695801v-2.4504509H58.3171425zM61.0475731 38.1112709c-.4861221-.2628975-.8677063-.627491-1.1444092-1.0937767-.2770424-.4663696-.415741-.9878578-.415741-1.564373 0-.5766029.1386986-1.0980873.415741-1.564373.2767029-.4663696.658287-.8309631 1.1444092-1.0938644.4861221-.2628136 1.0315857-.3942604 1.6363945-.3942604s1.1502724.1314468 1.6367416.3942604c.4861221.2629013.867363.6261139 1.1444092 1.08955.2770386.4636116.4157333.9864807.4157333 1.5686874 0 .5822105-.1386948 1.1051636-.4157333 1.5685997-.2770462.4635239-.658287.8266525-1.1444092 1.08955-.4864693.2628136-1.0319328.3942642-1.6367416.3942642S61.5336952 38.3740845 61.0475731 38.1112709zM63.7524719 37.2718544c.3163757-.178112.5651321-.4267807.7462616-.7461739.1807861-.3193092.2711792-.6768303.2711792-1.0725594 0-.3956413-.0903931-.7532501-.2711792-1.0726433-.1811295-.3193092-.4298859-.5680656-.7462616-.7461777-.3167229-.1780243-.6727753-.2670403-1.0685043-.2670403s-.7517815.089016-1.068161.2670403c-.3167191.178112-.5654755.4268684-.7462616.7461777-.1807861.3193932-.2711792.677002-.2711792 1.0726433 0 .3957291.0903931.7532501.2711792 1.0725594.1807861.3193932.4295425.5680618.7462616.7461739.3163795.1780281.6724319.2670403 1.068161.2670403S63.4357491 37.4498825 63.7524719 37.2718544zM68.1700134 33.4181519h-1.9672623v-.9327431h5.036499v.9327431h-1.9669189v5.0025978h-1.1023178V33.4181519zM76.5217361 37.4965439v.9242058h-4.4516983v-5.9353409H76.40271v.924202h-3.2303543v1.5432434h2.8660202v.9072113h-2.8660202v1.6364784H76.5217361zM77.7510147 32.4854088h1.1023178v5.0026855h3.1033936v.9326553h-4.2057114V32.4854088z"/></g><rect width="17.48" height="27.15" x="58.76" y="101.194" fill="#ab5033"/><g><path fill="#8e3423" d="M74.9907227,127.0936432H60.0092773v-24.6499023h14.9814453V127.0936432z M60.5092773,126.5936432
					h13.9814453v-23.6499023H60.5092773V126.5936432z"/></g><rect width="11.403" height="5.81" x="61.798" y="104.416" fill="#44433f"/><g><path fill="#8e3423" d="M73.4516602,110.4757233H61.5483398v-6.3101807h11.9033203V110.4757233z M62.0483398,109.9757233
					h10.9033203v-5.3101807H62.0483398V109.9757233z"/></g><rect width="11.403" height="12.657" x="61.798" y="112.267" fill="#44433f"/><g><path fill="#8e3423" d="M73.4516602,125.1735992H61.5483398V112.016983h11.9033203V125.1735992z M62.0483398,124.6735992
							h10.9033203V112.516983H62.0483398V124.6735992z"/><rect width=".5" height="12.657" x="67.25" y="112.267" fill="#8e3423"/><rect width="11.403" height=".5" x="61.799" y="116.067" fill="#8e3423"/><rect width="11.403" height=".5" x="61.799" y="120.624" fill="#8e3423"/></g><g><rect width="12.764" height="19.62" x="82.38" y="91.534" fill="#ab5033"/><polygon fill="#bf6149" points="96.152 91.566 97.32 88.132 80.205 88.132 81.373 91.566"/><polygon fill="#d37562" points="89.651 92.019 90.82 87.679 86.705 87.679 87.874 92.019"/><rect width="10.005" height="16.862" x="83.76" y="92.913" fill="#eeebfe"/><rect width="10.005" height=".826" x="83.76" y="96.771" fill="#ab5033"/><rect width=".826" height="12.591" x="88.351" y="97.184" fill="#ab5033"/><polygon points="95.145 91.534 95.145 105.337 82.38 92.572 82.38 91.534" opacity=".08"/></g><g><rect width="12.764" height="19.62" x="39.855" y="91.534" fill="#ab5033"/><polygon fill="#bf6149" points="53.627 91.566 54.795 88.132 37.68 88.132 38.848 91.566"/><polygon fill="#d37562" points="47.126 92.019 48.295 87.679 44.18 87.679 45.349 92.019"/><rect width="10.005" height="16.862" x="41.235" y="92.913" fill="#eeebfe"/><rect width="10.005" height=".826" x="41.235" y="96.771" fill="#ab5033"/><rect width=".826" height="12.591" x="45.826" y="97.184" fill="#ab5033"/><polygon points="52.62 91.534 52.62 105.337 39.855 92.572 39.855 91.534" opacity=".08"/></g><rect width="11.661" height="11.661" x="61.67" y="83.009" fill="#ab5033"/><g><path fill="#d37562" d="M73.5805664,94.9201813H61.4194336V82.7594147h12.1611328V94.9201813z M61.9194336,94.4201813h11.1611328
					V83.2594147H61.9194336V94.4201813z"/></g><rect width="8.806" height="8.806" x="63.097" y="84.437" fill="#44433f"/><g><path fill="#8e3423" d="M72.152832,93.4924469H62.847168V84.187027h9.3056641V93.4924469z M63.347168,92.9924469h8.3056641
					V84.687027H63.347168V92.9924469z"/></g><polygon points="54.76 13.634 54.76 25.464 43.82 14.524 43.82 13.634" opacity=".08"/><polygon points="72.97 13.634 72.97 25.464 62.03 14.524 62.03 13.634" opacity=".08"/><polygon points="91.18 13.634 91.18 25.464 80.24 14.524 80.24 13.634" opacity=".08"/><polygon points="73.882 57.836 73.882 71.639 61.118 58.874 61.118 57.836" opacity=".08"/><polygon points="95.145 57.836 95.145 71.639 82.38 58.874 82.38 57.836" opacity=".08"/><polygon points="76.24 101.194 76.24 119.134 58.76 101.654 58.76 101.194" opacity=".08"/><polygon fill="#bf6149" points="76.7 101.194 78.155 97.709 56.845 97.709 58.3 101.194"/><polygon fill="#d37562" points="68.606 101.652 70.062 97.251 64.938 97.251 66.394 101.652"/></svg>