<?xml version="1.0" encoding="UTF-8"?><!DOCTYPE svg PUBLIC "-//W3C//DTD SVG 1.1//EN" "http://www.w3.org/Graphics/SVG/1.1/DTD/svg11.dtd"><svg xmlns="http://www.w3.org/2000/svg" xmlns:xlink="http://www.w3.org/1999/xlink" version="1.1" x="0px" y="0px" width="512px" height="512px" viewBox="0 0 512 512" xml:space="preserve"><g fill="#262626" id="linkedin__x2C__social__x2C__media_x2C__icons_x2C_"><path d="M425.619 86.346c-43.447-43.446-103.361-70.28-169.654-70.28-66.297 0-126.212 26.834-169.65 70.279-43.452 43.442-70.286 103.359-70.286 169.652 0 66.292 26.834 126.211 70.286 169.654 43.438 43.447 103.353 70.281 169.65 70.281 66.293 0 126.207-26.834 169.654-70.281 43.443-43.443 70.277-103.362 70.277-169.654s-26.833-126.209-70.277-169.651zm-13.287 326.019c-39.993 40.126-95.251 64.835-156.367 64.835-61.121 0-116.379-24.709-156.372-64.835-40.117-39.984-64.831-95.252-64.831-156.367 0-61.111 24.714-116.377 64.831-156.365C139.586 59.509 194.844 34.8 255.965 34.8c61.116 0 116.374 24.709 156.367 64.833 40.121 39.988 64.831 95.254 64.831 156.365 0 61.115-24.71 116.383-64.831 156.367z"/><path d="M145 258.257V363h53V218h-53z"/><path d="M310.3 218.666c-21.657 0-36.269 9.334-42.378 18.334H266v-19h-39v145h44v-70.331c0-18.87 1.816-37.066 24.938-37.066 23.242 0 23.063 21.518 23.063 38.392V363h44v-78.039c0-7.443.221-14.946-.574-21.325-3.322-27.366-15.191-44.97-52.127-44.97z"/><path d="M172.931 147.722c-13.949 0-25.244 11.293-25.244 25.244 0 13.952 11.295 25.242 25.244 25.242 13.95 0 25.24-11.29 25.24-25.242-.001-13.951-11.291-25.244-25.24-25.244z"/></g><metadata><rdf:RDF xmlns:rdf="http://www.w3.org/1999/02/22-rdf-syntax-ns#" xmlns:rdfs="http://www.w3.org/2000/01/rdf-schema#" xmlns:dc="http://purl.org/dc/elements/1.1/"><rdf:Description about="https://iconscout.com/legal#licenses" dc:title="linkedin,social,media,s" dc:description="linkedin,social,media,s" dc:publisher="Iconscout" dc:date="2018-06-25" dc:format="image/svg+xml" dc:language="en"><dc:creator><rdf:Bag><rdf:li>Ibrandify Icons</rdf:li></rdf:Bag></dc:creator></rdf:Description></rdf:RDF></metadata></svg>