<svg xmlns="http://www.w3.org/2000/svg" viewBox="0 0 32 32"><g data-name="Layer 12"><path fill="#b7b7b7" d="M30,27.25H10.37l7.52-10.71,1.84-2.6a.56.56,0,0,1,.91,0l2,2.87Z"/><path fill="#fff" d="M21,14.51l-1.44,2L12.08,27.25H10.37l7.52-10.71,1.84-2.6a.56.56,0,0,1,.91,0Z" opacity=".4"/><path d="M19.34,14.51l1.43,2,7.52,10.71H30L22.48,16.54l-1.83-2.6a.56.56,0,0,0-.91,0Z" opacity=".1"/><path fill="#dedee0" d="M22.66,16.81l-1.06,1.8-1.42-2.12-.65,1.62-1.64-1.57,1.84-2.6a.56.56,0,0,1,.91,0Z"/><path fill="#b7b7b7" d="M20.92,27.25h-17L10.43,18,12,15.71a.49.49,0,0,1,.79,0l1.75,2.49Z"/><path fill="#fff" d="M13.15,16.2,11.91,18,5.39,27.25H3.91L10.43,18,12,15.71a.49.49,0,0,1,.79,0Z" opacity=".4"/><path d="M11.68,16.2,12.92,18l6.52,9.28h1.48L14.41,18l-1.59-2.26a.49.49,0,0,0-.79,0Z" opacity=".1"/><path fill="#dedee0" d="M14.56,18.2l-.92,1.56-1.23-1.84-.57,1.4L10.43,18,12,15.71a.49.49,0,0,1,.79,0Z"/><path d="M30.31,27,23,16.6h0L22.52,16l-1.58-2.24a.92.92,0,0,0-.77-.39,1,1,0,0,0-.73.38l0,0-1.83,2.6h0l-1.95,2.76L14.87,18h0L13.11,15.5a.84.84,0,0,0-.7-.36h0a.84.84,0,0,0-.7.36l-1.59,2.25h0L3.6,27c-.13.32,0,.52.31.59H30C30.34,27.55,30.44,27.36,30.31,27ZM20,14.16a.14.14,0,0,1,.1-.07h.09s.07,0,.1.07L22,16.5l.23.33-.63,1.07-1.09-1.62a.37.37,0,0,0-.66.07l-.44,1.1-1-.95Zm-7.63,1.73a.1.1,0,0,1,.09,0l1.61,2.29-.49.83-.9-1.34a.38.38,0,0,0-.66.07l-.36.89-.78-.75,1.4-2A.1.1,0,0,1,12.41,15.89Zm-1.92,2.65,1.09,1.05a.37.37,0,0,0,.61-.13l.3-.75L13.33,20A.38.38,0,0,0,14,20l.62-1.06,5.61,8H4.63Zm10.63,8.34-5-7.14L18,17.12l1.32,1.26a.37.37,0,0,0,.6-.13l.39-1,1,1.54a.38.38,0,0,0,.64,0l.76-1.3,6.59,9.38Z"/><circle cx="7.38" cy="10.13" r="2.99" fill="#ffb048"/><path d="M10.38,10.14a3,3,0,0,1-3,3,2.73,2.73,0,0,1-.5-.05,3,3,0,0,0,0-5.9,2.74,2.74,0,0,1,.5,0A3,3,0,0,1,10.38,10.14Z" opacity=".1"/><path fill="#fff" d="M4.39,10.14a3,3,0,0,0,3,3,2.72,2.72,0,0,0,.49-.05,3,3,0,0,1,0-5.9,2.7,2.7,0,0,0-.49,0A3,3,0,0,0,4.39,10.14Z" opacity=".4"/><path d="M7.38 13.5a3.37 3.37 0 1 1 3.37-3.37A3.37 3.37 0 0 1 7.38 13.5zm0-6A2.62 2.62 0 1 0 10 10.13 2.63 2.63 0 0 0 7.38 7.51zM3.28 10.51H2a.37.37 0 0 1-.37-.38A.36.36 0 0 1 2 9.76H3.28a.37.37 0 0 1 .38.37A.38.38 0 0 1 3.28 10.51zM12.76 10.51H11.48a.38.38 0 0 1-.38-.38.37.37 0 0 1 .38-.37h1.28a.36.36 0 0 1 .37.37A.37.37 0 0 1 12.76 10.51z"/><path d="M7.38 6.41A.38.38 0 0 1 7 6V4.75a.37.37 0 0 1 .38-.37.36.36 0 0 1 .37.37V6A.37.37 0 0 1 7.38 6.41zM7.38 15.89A.38.38 0 0 1 7 15.51V14.23a.38.38 0 0 1 .38-.38.37.37 0 0 1 .37.38v1.28A.37.37 0 0 1 7.38 15.89zM10.28 7.61A.4.4 0 0 1 10 7.5.39.39 0 0 1 10 7l.91-.91a.39.39 0 0 1 .53 0 .37.37 0 0 1 0 .53l-.91.91A.38.38 0 0 1 10.28 7.61zM3.58 14.31a.39.39 0 0 1-.27-.11.37.37 0 0 1 0-.53l.91-.91a.37.37 0 1 1 .53.53l-.91.91A.38.38 0 0 1 3.58 14.31zM11.18 14.31a.38.38 0 0 1-.26-.11L10 13.29a.37.37 0 1 1 .53-.53l.91.91a.37.37 0 0 1 0 .53A.39.39 0 0 1 11.18 14.31zM4.48 7.61a.38.38 0 0 1-.26-.11l-.91-.91a.37.37 0 0 1 0-.53.39.39 0 0 1 .53 0L4.75 7a.39.39 0 0 1 0 .53A.4.4 0 0 1 4.48 7.61z"/></g></svg>