<?xml version="1.0" encoding="UTF-8" standalone="no"?>
<svg xmlns:dc="http://purl.org/dc/elements/1.1/" xmlns:cc="http://creativecommons.org/ns#" xmlns:rdf="http://www.w3.org/1999/02/22-rdf-syntax-ns#" xmlns:svg="http://www.w3.org/2000/svg" xmlns="http://www.w3.org/2000/svg" xmlns:sodipodi="http://sodipodi.sourceforge.net/DTD/sodipodi-0.dtd" xmlns:inkscape="http://www.inkscape.org/namespaces/inkscape" width="32" height="32" viewBox="0 0 32 32.000001" id="svg17515" version="1.1" inkscape:version="0.91 r13725" sodipodi:docname="travel-luggage-baggage-tour-trip-vacation-holiday.svg">
  <defs id="defs17517">
    <clipPath clipPathUnits="userSpaceOnUse" id="clipPath32617-9-8-8-9">
      <circle r="38.553814" cy="50.047192" cx="-64.623535" style="fill:#4bb7c0;fill-opacity:1;stroke:none" id="path32619-2-3-5-1" transform="matrix(9.3443438,0,0,9.3443438,-627.91229,-5859.5225)"/>
    </clipPath>
    <clipPath clipPathUnits="userSpaceOnUse" id="clipPath19550">
      <circle r="38.553814" cy="50.047192" cx="-64.623535" style="fill:#4bb7c0;fill-opacity:1;stroke:none" id="circle19552" transform="matrix(9.3443438,0,0,9.3443438,-627.91229,-5859.5225)"/>
    </clipPath>
  </defs>
  <sodipodi:namedview id="base" pagecolor="#ffffff" bordercolor="#666666" borderopacity="1.0" inkscape:pageopacity="0.0" inkscape:pageshadow="2" inkscape:zoom="6.409375" inkscape:cx="-39.73922" inkscape:cy="11.186518" inkscape:document-units="px" inkscape:current-layer="layer1" showgrid="false" units="px" inkscape:window-width="1366" inkscape:window-height="716" inkscape:window-x="-8" inkscape:window-y="-8" inkscape:window-maximized="1"/>
  
  <g inkscape:label="Layer 1" inkscape:groupmode="layer" id="layer1" transform="translate(0,-1020.3622)">
    <g style="display:inline" id="g27826" transform="translate(355.1409,862.90569)">
      <path style="color:#000000;font-style:normal;font-variant:normal;font-weight:normal;font-stretch:normal;font-size:medium;line-height:normal;font-family:sans-serif;text-indent:0;text-align:start;text-decoration:none;text-decoration-line:none;text-decoration-style:solid;text-decoration-color:#000000;letter-spacing:normal;word-spacing:normal;text-transform:none;direction:ltr;writing-mode:lr-tb;baseline-shift:baseline;text-anchor:start;white-space:normal;clip-rule:nonzero;display:inline;overflow:visible;visibility:visible;opacity:1;isolation:auto;mix-blend-mode:normal;color-interpolation:sRGB;color-interpolation-filters:linearRGB;solid-color:#000000;solid-opacity:1;fill:#000000;fill-opacity:1;fill-rule:evenodd;stroke:none;stroke-width:1px;stroke-linecap:butt;stroke-linejoin:miter;stroke-miterlimit:4;stroke-dasharray:none;stroke-dashoffset:0;stroke-opacity:1;color-rendering:auto;image-rendering:auto;shape-rendering:auto;text-rendering:auto;enable-background:accumulate" d="m -332.6543,166.06728 c -1.98331,-0.0239 -4.02339,-0.0181 -6.09765,0.006 -4.14852,0.048 -8.43471,0.17133 -12.6836,0.28906 -0.48747,0.0135 -0.89426,0.26525 -1.20312,0.58984 -0.30887,0.32459 -0.54124,0.74431 -0.53321,1.23047 0.0473,5.56854 0.0695,10.59705 -0.0625,15.16407 -0.0137,0.47521 0.2116,0.88081 0.50977,1.19531 0.29817,0.3145 0.69222,0.56283 1.16992,0.57031 8.29959,0.13633 17.07326,0.56164 24.92188,-0.0644 0.34833,-0.0278 0.67822,-0.16325 0.96484,-0.37891 0.28619,-0.21534 0.55778,-0.544 0.55859,-0.99219 l 0,-0.002 c 0.018,-4.34624 0.0106,-10.68432 0.0625,-15.87109 0.005,-0.52173 -0.33047,-0.90635 -0.68359,-1.15235 -0.35312,-0.246 -0.75792,-0.3936 -1.16601,-0.41406 -1.84794,-0.0925 -3.7745,-0.14604 -5.75782,-0.16992 z" id="path27787" inkscape:connector-curvature="0"/>
      <path style="color:#000000;font-style:normal;font-variant:normal;font-weight:normal;font-stretch:normal;font-size:medium;line-height:normal;font-family:sans-serif;text-indent:0;text-align:start;text-decoration:none;text-decoration-line:none;text-decoration-style:solid;text-decoration-color:#000000;letter-spacing:normal;word-spacing:normal;text-transform:none;direction:ltr;writing-mode:lr-tb;baseline-shift:baseline;text-anchor:start;white-space:normal;clip-rule:nonzero;display:inline;overflow:visible;visibility:visible;opacity:1;isolation:auto;mix-blend-mode:normal;color-interpolation:sRGB;color-interpolation-filters:linearRGB;solid-color:#000000;solid-opacity:1;fill:#d6e5e5;fill-opacity:1;fill-rule:evenodd;stroke:none;stroke-width:1px;stroke-linecap:butt;stroke-linejoin:miter;stroke-miterlimit:4;stroke-dasharray:none;stroke-dashoffset:0;stroke-opacity:1;color-rendering:auto;image-rendering:auto;shape-rendering:auto;text-rendering:auto;enable-background:accumulate" d="m -332.97461,167.06728 -0.3457,17.27539 0.17773,0.004 c -3.88125,0.0739 -7.89673,-0.003 -11.90234,-0.0957 l 0.16992,-17.0625 c 2.06588,-0.0499 4.11971,-0.0919 6.13672,-0.11523 1.96323,-0.0227 3.8857,-0.0259 5.76367,-0.006 z" id="path27789" inkscape:connector-curvature="0"/>
      <path style="color:#000000;font-style:normal;font-variant:normal;font-weight:normal;font-stretch:normal;font-size:medium;line-height:normal;font-family:sans-serif;text-indent:0;text-align:start;text-decoration:none;text-decoration-line:none;text-decoration-style:solid;text-decoration-color:#000000;letter-spacing:normal;word-spacing:normal;text-transform:none;direction:ltr;writing-mode:lr-tb;baseline-shift:baseline;text-anchor:start;white-space:normal;clip-rule:nonzero;display:inline;overflow:visible;visibility:visible;opacity:1;isolation:auto;mix-blend-mode:normal;color-interpolation:sRGB;color-interpolation-filters:linearRGB;solid-color:#000000;solid-opacity:1;fill:#d6e5e5;fill-opacity:1;fill-rule:evenodd;stroke:none;stroke-width:1px;stroke-linecap:butt;stroke-linejoin:miter;stroke-miterlimit:4;stroke-dasharray:none;stroke-dashoffset:0;stroke-opacity:1;color-rendering:auto;image-rendering:auto;shape-rendering:auto;text-rendering:auto;enable-background:accumulate" d="m -331.97461,167.08095 c 0.75006,0.0119 1.49974,0.0237 2.23047,0.0449 0.0363,0.14299 0.0681,0.28713 0.18164,0.63086 0.15783,0.47774 0.35348,1.02803 0.68164,1.43945 0.46805,0.58684 1.11956,0.96503 1.75586,1.21485 0.2919,0.1146 0.59991,0.14619 0.86914,0.17383 0.1088,0.0112 0.116,0.01 0.19727,0.0156 -0.0215,3.51839 -0.0317,6.97451 -0.0391,10.15234 -0.0716,0.0157 -0.0711,0.0138 -0.1582,0.0352 -0.27601,0.0678 -0.5917,0.14991 -0.86719,0.28906 -0.61734,0.31177 -1.2583,0.72593 -1.7207,1.33985 -0.2846,0.37818 -0.4622,0.86806 -0.60547,1.29492 -0.0954,0.28414 -0.11722,0.38414 -0.1543,0.52148 -0.89475,0.043 -1.80332,0.0709 -2.71679,0.0937 z" id="path27791" inkscape:connector-curvature="0"/>
      <path style="color:#000000;font-style:normal;font-variant:normal;font-weight:normal;font-stretch:normal;font-size:medium;line-height:normal;font-family:sans-serif;text-indent:0;text-align:start;text-decoration:none;text-decoration-line:none;text-decoration-style:solid;text-decoration-color:#000000;letter-spacing:normal;word-spacing:normal;text-transform:none;direction:ltr;writing-mode:lr-tb;baseline-shift:baseline;text-anchor:start;white-space:normal;clip-rule:nonzero;display:inline;overflow:visible;visibility:visible;opacity:1;isolation:auto;mix-blend-mode:normal;color-interpolation:sRGB;color-interpolation-filters:linearRGB;solid-color:#000000;solid-opacity:1;fill:#87d4f6;fill-opacity:1;fill-rule:evenodd;stroke:none;stroke-width:1px;stroke-linecap:butt;stroke-linejoin:miter;stroke-miterlimit:4;stroke-dasharray:none;stroke-dashoffset:0;stroke-opacity:1;color-rendering:auto;image-rendering:auto;shape-rendering:auto;text-rendering:auto;enable-background:accumulate" d="m -328.69141,167.16884 c 0.58435,0.0213 1.17481,0.0399 1.74414,0.0684 0.17041,0.009 0.45528,0.10117 0.64649,0.23438 0.1912,0.13319 0.25449,0.2648 0.2539,0.32226 -0.006,0.59061 -0.003,1.18912 -0.008,1.80469 -0.0482,-0.004 -0.0446,-0.002 -0.0996,-0.008 -0.23384,-0.024 -0.52307,-0.079 -0.60547,-0.11133 -0.52749,-0.2071 -1.02633,-0.51563 -1.33789,-0.90625 -0.14604,-0.1831 -0.3702,-0.69463 -0.51367,-1.12891 -0.0495,-0.1498 -0.0453,-0.15428 -0.0801,-0.27539 z" id="path27793" inkscape:connector-curvature="0"/>
      <path style="color:#000000;font-style:normal;font-variant:normal;font-weight:normal;font-stretch:normal;font-size:medium;line-height:normal;font-family:sans-serif;text-indent:0;text-align:start;text-decoration:none;text-decoration-line:none;text-decoration-style:solid;text-decoration-color:#000000;letter-spacing:normal;word-spacing:normal;text-transform:none;direction:ltr;writing-mode:lr-tb;baseline-shift:baseline;text-anchor:start;white-space:normal;clip-rule:nonzero;display:inline;overflow:visible;visibility:visible;opacity:1;isolation:auto;mix-blend-mode:normal;color-interpolation:sRGB;color-interpolation-filters:linearRGB;solid-color:#000000;solid-opacity:1;fill:#d6e5e5;fill-opacity:1;fill-rule:evenodd;stroke:none;stroke-width:1px;stroke-linecap:butt;stroke-linejoin:miter;stroke-miterlimit:4;stroke-dasharray:none;stroke-dashoffset:0;stroke-opacity:1;color-rendering:auto;image-rendering:auto;shape-rendering:auto;text-rendering:auto;enable-background:accumulate" d="m -345.875,167.21376 -0.0566,5.72071 c -0.33011,-0.23764 -0.70212,-0.47126 -1.20117,-0.44727 -0.92814,0.0446 -1.68006,0.70869 -2.05078,1.46875 -0.37576,0.77027 -0.26109,1.65849 0.0547,2.36133 0.27857,0.62019 0.79853,1.16701 1.48633,1.39453 0.45074,0.14911 0.86634,0.0564 1.22656,-0.0176 0.24245,-0.0498 0.32563,-0.0815 0.4375,-0.11523 l -0.0664,6.65039 c -0.78701,-0.0184 -1.56583,-0.0333 -2.34961,-0.0508 -0.0253,-0.11947 -0.0298,-0.1565 -0.0781,-0.34571 -0.0909,-0.35591 -0.20031,-0.76589 -0.40039,-1.10547 -0.35531,-0.60307 -0.86293,-1.11407 -1.4414,-1.49023 -0.36344,-0.23632 -0.82605,-0.39422 -1.22852,-0.52148 -0.3459,-0.10937 -0.55666,-0.16056 -0.63281,-0.17969 0.0482,-3.05077 0.0387,-6.36065 0.0156,-9.8125 0.10125,-0.0208 0.1438,-0.0272 0.31836,-0.0703 0.30195,-0.0745 0.64867,-0.16447 0.94336,-0.31446 0.5418,-0.27579 1.111,-0.64002 1.51953,-1.19531 0.29961,-0.40729 0.48201,-0.94482 0.62891,-1.41016 0.0768,-0.24326 0.0822,-0.28916 0.12305,-0.44531 0.91829,-0.0251 1.83598,-0.051 2.75195,-0.0742 z" id="path27795" inkscape:connector-curvature="0"/>
      <path style="color:#000000;font-style:normal;font-variant:normal;font-weight:normal;font-stretch:normal;font-size:medium;line-height:normal;font-family:sans-serif;text-indent:0;text-align:start;text-decoration:none;text-decoration-line:none;text-decoration-style:solid;text-decoration-color:#000000;letter-spacing:normal;word-spacing:normal;text-transform:none;direction:ltr;writing-mode:lr-tb;baseline-shift:baseline;text-anchor:start;white-space:normal;clip-rule:nonzero;display:inline;overflow:visible;visibility:visible;opacity:1;isolation:auto;mix-blend-mode:normal;color-interpolation:sRGB;color-interpolation-filters:linearRGB;solid-color:#000000;solid-opacity:1;fill:#87d4f6;fill-opacity:1;fill-rule:evenodd;stroke:none;stroke-width:1px;stroke-linecap:butt;stroke-linejoin:miter;stroke-miterlimit:4;stroke-dasharray:none;stroke-dashoffset:0;stroke-opacity:1;color-rendering:auto;image-rendering:auto;shape-rendering:auto;text-rendering:auto;enable-background:accumulate" d="m -349.66992,167.31532 c -0.0177,0.0599 -0.013,0.053 -0.0332,0.11719 -0.13408,0.42469 -0.34158,0.92838 -0.48047,1.11719 -0.26447,0.35946 -0.69777,0.65909 -1.16797,0.89844 -0.12551,0.0639 -0.45776,0.16706 -0.73047,0.23437 -0.045,0.0111 -0.0405,0.008 -0.082,0.0176 -0.004,-0.52555 -0.003,-0.99597 -0.008,-1.53125 l 0,-0.002 0,-0.002 c -0.002,-0.11786 0.0882,-0.3472 0.25586,-0.52343 0.16769,-0.17622 0.39149,-0.27608 0.50782,-0.2793 0.57919,-0.0161 1.15828,-0.0308 1.73828,-0.0469 z" id="path27797" inkscape:connector-curvature="0"/>
      <path style="color:#000000;font-style:normal;font-variant:normal;font-weight:normal;font-stretch:normal;font-size:medium;line-height:normal;font-family:sans-serif;text-indent:0;text-align:start;text-decoration:none;text-decoration-line:none;text-decoration-style:solid;text-decoration-color:#000000;letter-spacing:normal;word-spacing:normal;text-transform:none;direction:ltr;writing-mode:lr-tb;baseline-shift:baseline;text-anchor:start;white-space:normal;clip-rule:nonzero;display:inline;overflow:visible;visibility:visible;opacity:1;isolation:auto;mix-blend-mode:normal;color-interpolation:sRGB;color-interpolation-filters:linearRGB;solid-color:#000000;solid-opacity:1;fill:#fad741;fill-opacity:1;fill-rule:evenodd;stroke:none;stroke-width:1px;stroke-linecap:butt;stroke-linejoin:miter;stroke-miterlimit:4;stroke-dasharray:none;stroke-dashoffset:0;stroke-opacity:1;color-rendering:auto;image-rendering:auto;shape-rendering:auto;text-rendering:auto;enable-background:accumulate" d="m -347.08594,173.4872 c 0.0516,-0.002 0.45809,0.15915 0.76563,0.38867 0.21175,0.15804 0.28435,0.23549 0.375,0.32031 l -0.0274,2.70508 -0.10742,-0.32617 c 0,0 -0.24058,0.0797 -0.53711,0.14063 -0.29652,0.0609 -0.66368,0.0625 -0.71093,0.0469 -0.34761,-0.11498 -0.72044,-0.4809 -0.88868,-0.85547 -0.21385,-0.47601 -0.25916,-1.12245 -0.0684,-1.51367 0.21748,-0.44586 0.78716,-0.88643 1.19922,-0.90625 z" id="path27799" inkscape:connector-curvature="0"/>
      <path style="color:#000000;font-style:normal;font-variant:normal;font-weight:normal;font-stretch:normal;font-size:medium;line-height:normal;font-family:sans-serif;text-indent:0;text-align:start;text-decoration:none;text-decoration-line:none;text-decoration-style:solid;text-decoration-color:#000000;letter-spacing:normal;word-spacing:normal;text-transform:none;direction:ltr;writing-mode:lr-tb;baseline-shift:baseline;text-anchor:start;white-space:normal;clip-rule:nonzero;display:inline;overflow:visible;visibility:visible;opacity:1;isolation:auto;mix-blend-mode:normal;color-interpolation:sRGB;color-interpolation-filters:linearRGB;solid-color:#000000;solid-opacity:1;fill:#87d4f6;fill-opacity:1;fill-rule:evenodd;stroke:none;stroke-width:1px;stroke-linecap:butt;stroke-linejoin:miter;stroke-miterlimit:4;stroke-dasharray:none;stroke-dashoffset:0;stroke-opacity:1;color-rendering:auto;image-rendering:auto;shape-rendering:auto;text-rendering:auto;enable-background:accumulate" d="m -352.19727,181.57118 c 0.12299,0.0334 0.15871,0.0386 0.35157,0.0996 0.36873,0.11659 0.81057,0.29001 0.98632,0.4043 0.45214,0.294 0.85436,0.70411 1.12305,1.16016 0.0814,0.13818 0.21315,0.52555 0.29492,0.8457 0.0107,0.0419 0.008,0.0367 0.0176,0.0762 -0.70366,-0.0147 -1.41679,-0.0334 -2.11523,-0.0449 -0.0969,-0.002 -0.30486,-0.0932 -0.46094,-0.25781 -0.15608,-0.16464 -0.23723,-0.37927 -0.23438,-0.47852 0.017,-0.58679 0.025,-1.20306 0.0371,-1.80469 z" id="path27801" inkscape:connector-curvature="0"/>
      <path style="color:#000000;font-style:normal;font-variant:normal;font-weight:normal;font-stretch:normal;font-size:medium;line-height:normal;font-family:sans-serif;text-indent:0;text-align:start;text-decoration:none;text-decoration-line:none;text-decoration-style:solid;text-decoration-color:#000000;letter-spacing:normal;word-spacing:normal;text-transform:none;direction:ltr;writing-mode:lr-tb;baseline-shift:baseline;text-anchor:start;white-space:normal;clip-rule:nonzero;display:inline;overflow:visible;visibility:visible;opacity:1;isolation:auto;mix-blend-mode:normal;color-interpolation:sRGB;color-interpolation-filters:linearRGB;solid-color:#000000;solid-opacity:1;fill:#87d4f6;fill-opacity:1;fill-rule:evenodd;stroke:none;stroke-width:1px;stroke-linecap:butt;stroke-linejoin:miter;stroke-miterlimit:4;stroke-dasharray:none;stroke-dashoffset:0;stroke-opacity:1;color-rendering:auto;image-rendering:auto;shape-rendering:auto;text-rendering:auto;enable-background:accumulate" d="m -326.10156,181.78798 c -0.002,0.56637 -0.006,1.3695 -0.008,1.88477 l 0,0.002 c 0,0.01 -0.0299,0.0973 -0.16015,0.19531 -0.13028,0.098 -0.33234,0.17294 -0.44141,0.18164 -0.60102,0.0479 -1.21772,0.0792 -1.83008,0.11524 0.0212,-0.068 0.0159,-0.062 0.041,-0.13672 0.12998,-0.38728 0.33008,-0.84562 0.45508,-1.01172 0.32052,-0.42598 0.82627,-0.77368 1.37109,-1.04883 0.0937,-0.0473 0.34825,-0.12235 0.57227,-0.18164 z" id="path27803" inkscape:connector-curvature="0"/>
      <path style="color:#000000;font-style:normal;font-variant:normal;font-weight:normal;font-stretch:normal;font-size:medium;line-height:normal;font-family:sans-serif;text-indent:0;text-align:start;text-decoration:none;text-decoration-line:none;text-decoration-style:solid;text-decoration-color:#000000;letter-spacing:normal;word-spacing:normal;text-transform:none;direction:ltr;writing-mode:lr-tb;baseline-shift:baseline;text-anchor:start;white-space:normal;clip-rule:nonzero;display:inline;overflow:visible;visibility:visible;opacity:1;isolation:auto;mix-blend-mode:normal;color-interpolation:sRGB;color-interpolation-filters:linearRGB;solid-color:#000000;solid-opacity:1;fill:#000000;fill-opacity:1;fill-rule:evenodd;stroke:none;stroke-width:1px;stroke-linecap:round;stroke-linejoin:round;stroke-miterlimit:4;stroke-dasharray:none;stroke-dashoffset:0;stroke-opacity:1;color-rendering:auto;image-rendering:auto;shape-rendering:auto;text-rendering:auto;enable-background:accumulate" d="m -338.46094,169.82031 a 0.50005,0.50005 0 0 0 -0.30273,0.125 l -1.50195,1.32422 a 0.50005,0.50005 0 0 0 -0.0371,0.71485 l 3.16015,3.42578 a 0.50005,0.50005 0 0 0 0.71485,0.0176 l 1.70312,-1.65625 a 0.50005,0.50005 0 0 0 -0.0117,-0.72656 l -3.35742,-3.09375 a 0.50005,0.50005 0 0 0 -0.36719,-0.13086 z" id="path27805" inkscape:connector-curvature="0"/>
      <path style="color:#000000;font-style:normal;font-variant:normal;font-weight:normal;font-stretch:normal;font-size:medium;line-height:normal;font-family:sans-serif;text-indent:0;text-align:start;text-decoration:none;text-decoration-line:none;text-decoration-style:solid;text-decoration-color:#000000;letter-spacing:normal;word-spacing:normal;text-transform:none;direction:ltr;writing-mode:lr-tb;baseline-shift:baseline;text-anchor:start;white-space:normal;clip-rule:nonzero;display:inline;overflow:visible;visibility:visible;opacity:1;isolation:auto;mix-blend-mode:normal;color-interpolation:sRGB;color-interpolation-filters:linearRGB;solid-color:#000000;solid-opacity:1;fill:#3d6591;fill-opacity:1;fill-rule:evenodd;stroke:none;stroke-width:1px;stroke-linecap:round;stroke-linejoin:round;stroke-miterlimit:4;stroke-dasharray:none;stroke-dashoffset:0;stroke-opacity:1;color-rendering:auto;image-rendering:auto;shape-rendering:auto;text-rendering:auto;enable-background:accumulate" d="m -338.43944,170.99219 2.63867,2.42969 -0.95508,0.93164 -2.4668,-2.67188 z" id="path27807" inkscape:connector-curvature="0"/>
      <path style="color:#000000;font-style:normal;font-variant:normal;font-weight:normal;font-stretch:normal;font-size:medium;line-height:normal;font-family:sans-serif;text-indent:0;text-align:start;text-decoration:none;text-decoration-line:none;text-decoration-style:solid;text-decoration-color:#000000;letter-spacing:normal;word-spacing:normal;text-transform:none;direction:ltr;writing-mode:lr-tb;baseline-shift:baseline;text-anchor:start;white-space:normal;clip-rule:nonzero;display:inline;overflow:visible;visibility:visible;opacity:1;isolation:auto;mix-blend-mode:normal;color-interpolation:sRGB;color-interpolation-filters:linearRGB;solid-color:#000000;solid-opacity:1;fill:#000000;fill-opacity:1;fill-rule:evenodd;stroke:none;stroke-width:1px;stroke-linecap:round;stroke-linejoin:round;stroke-miterlimit:4;stroke-dasharray:none;stroke-dashoffset:0;stroke-opacity:1;color-rendering:auto;image-rendering:auto;shape-rendering:auto;text-rendering:auto;enable-background:accumulate" d="m -341.13477,177.92383 a 0.50005,0.50005 0 0 0 -0.39453,0.22656 l -2,3.0625 a 0.50005,0.50005 0 0 0 0.38086,0.77149 l 3.9375,0.3125 a 0.50005,0.50005 0 0 0 0.47266,-0.74805 l -1.9375,-3.375 a 0.50005,0.50005 0 0 0 -0.45899,-0.25 z" id="path27809" inkscape:connector-curvature="0"/>
      <path style="color:#000000;font-style:normal;font-variant:normal;font-weight:normal;font-stretch:normal;font-size:medium;line-height:normal;font-family:sans-serif;text-indent:0;text-align:start;text-decoration:none;text-decoration-line:none;text-decoration-style:solid;text-decoration-color:#000000;letter-spacing:normal;word-spacing:normal;text-transform:none;direction:ltr;writing-mode:lr-tb;baseline-shift:baseline;text-anchor:start;white-space:normal;clip-rule:nonzero;display:inline;overflow:visible;visibility:visible;opacity:1;isolation:auto;mix-blend-mode:normal;color-interpolation:sRGB;color-interpolation-filters:linearRGB;solid-color:#000000;solid-opacity:1;fill:#fd982f;fill-opacity:1;fill-rule:evenodd;stroke:none;stroke-width:1px;stroke-linecap:round;stroke-linejoin:round;stroke-miterlimit:4;stroke-dasharray:none;stroke-dashoffset:0;stroke-opacity:1;color-rendering:auto;image-rendering:auto;shape-rendering:auto;text-rendering:auto;enable-background:accumulate" d="m -341.13677,179.37891 1.06055,1.84765 -2.1543,-0.17187 z" id="path27812" inkscape:connector-curvature="0"/>
      <path style="color:#000000;font-style:normal;font-variant:normal;font-weight:normal;font-stretch:normal;font-size:medium;line-height:normal;font-family:sans-serif;text-indent:0;text-align:start;text-decoration:none;text-decoration-line:none;text-decoration-style:solid;text-decoration-color:#000000;letter-spacing:normal;word-spacing:normal;text-transform:none;direction:ltr;writing-mode:lr-tb;baseline-shift:baseline;text-anchor:start;white-space:normal;clip-rule:nonzero;display:inline;overflow:visible;visibility:visible;opacity:1;isolation:auto;mix-blend-mode:normal;color-interpolation:sRGB;color-interpolation-filters:linearRGB;solid-color:#000000;solid-opacity:1;fill:#000000;fill-opacity:1;fill-rule:evenodd;stroke:none;stroke-width:1px;stroke-linecap:butt;stroke-linejoin:miter;stroke-miterlimit:4;stroke-dasharray:none;stroke-dashoffset:0;stroke-opacity:1;color-rendering:auto;image-rendering:auto;shape-rendering:auto;text-rendering:auto;enable-background:accumulate" d="m -342.36719,161.5332 c -0.30478,2.9e-4 -0.63046,0.0647 -0.9414,0.2168 -0.31094,0.15206 -0.65625,0.43619 -0.70313,0.89453 -0.13775,1.34997 0.041,4.06055 0.041,4.06055 l 0.99804,-0.0625 c 0,0 -0.15817,-2.78659 -0.0449,-3.89649 -0.002,0.0184 0.007,-0.0283 0.14844,-0.0977 0.14181,-0.0693 0.36649,-0.11511 0.50391,-0.11524 2.38208,-0.002 5.46097,0.0184 7.10546,0.34375 0.0214,0.004 0.10742,0.054 0.1836,0.1836 0.0762,0.12961 0.12275,0.31724 0.12109,0.42383 -0.0104,0.69647 0,3.23437 0,3.23437 l 1,-0.004 c 0,0 -0.01,-2.56394 0,-3.21484 l 0,-0.002 c 0.005,-0.32996 -0.0883,-0.65354 -0.25976,-0.94532 -0.17182,-0.29233 -0.44392,-0.57567 -0.85157,-0.65625 -1.85931,-0.36785 -4.91546,-0.36528 -7.30078,-0.36328 z" id="path27814" inkscape:connector-curvature="0"/>
      <path style="color:#000000;font-style:normal;font-variant:normal;font-weight:normal;font-stretch:normal;font-size:medium;line-height:normal;font-family:sans-serif;text-indent:0;text-align:start;text-decoration:none;text-decoration-line:none;text-decoration-style:solid;text-decoration-color:#000000;letter-spacing:normal;word-spacing:normal;text-transform:none;direction:ltr;writing-mode:lr-tb;baseline-shift:baseline;text-anchor:start;white-space:normal;clip-rule:nonzero;display:inline;overflow:visible;visibility:visible;opacity:1;isolation:auto;mix-blend-mode:normal;color-interpolation:sRGB;color-interpolation-filters:linearRGB;solid-color:#000000;solid-opacity:1;fill:#000000;fill-opacity:1;fill-rule:evenodd;stroke:none;stroke-width:1px;stroke-linecap:butt;stroke-linejoin:miter;stroke-miterlimit:4;stroke-dasharray:none;stroke-dashoffset:0;stroke-opacity:1;color-rendering:auto;image-rendering:auto;shape-rendering:auto;text-rendering:auto;enable-background:accumulate" d="m -343.45703,163.875 -0.0293,1 8.83985,0.26562 0.0293,-1 z" id="path27816" inkscape:connector-curvature="0"/>
      <path style="color:#000000;font-style:normal;font-variant:normal;font-weight:normal;font-stretch:normal;font-size:medium;line-height:normal;font-family:sans-serif;text-indent:0;text-align:start;text-decoration:none;text-decoration-line:none;text-decoration-style:solid;text-decoration-color:#000000;letter-spacing:normal;word-spacing:normal;text-transform:none;direction:ltr;writing-mode:lr-tb;baseline-shift:baseline;text-anchor:start;white-space:normal;clip-rule:nonzero;display:inline;overflow:visible;visibility:visible;opacity:1;isolation:auto;mix-blend-mode:normal;color-interpolation:sRGB;color-interpolation-filters:linearRGB;solid-color:#000000;solid-opacity:1;fill:#000000;fill-opacity:1;fill-rule:evenodd;stroke:none;stroke-width:0.25;stroke-linecap:round;stroke-linejoin:round;stroke-miterlimit:4;stroke-dasharray:none;stroke-dashoffset:0;stroke-opacity:1;color-rendering:auto;image-rendering:auto;shape-rendering:auto;text-rendering:auto;enable-background:accumulate" d="m -347.36523,173.95312 a 0.1250125,0.1250125 0 0 0 -0.0664,0.0254 l -1.51563,1.07812 a 0.1250125,0.1250125 0 1 0 0.14454,0.20313 l 1.51562,-1.07813 a 0.1250125,0.1250125 0 0 0 -0.0781,-0.22852 z" id="path27818" inkscape:connector-curvature="0"/>
      <path style="color:#000000;font-style:normal;font-variant:normal;font-weight:normal;font-stretch:normal;font-size:medium;line-height:normal;font-family:sans-serif;text-indent:0;text-align:start;text-decoration:none;text-decoration-line:none;text-decoration-style:solid;text-decoration-color:#000000;letter-spacing:normal;word-spacing:normal;text-transform:none;direction:ltr;writing-mode:lr-tb;baseline-shift:baseline;text-anchor:start;white-space:normal;clip-rule:nonzero;display:inline;overflow:visible;visibility:visible;opacity:1;isolation:auto;mix-blend-mode:normal;color-interpolation:sRGB;color-interpolation-filters:linearRGB;solid-color:#000000;solid-opacity:1;fill:#000000;fill-opacity:1;fill-rule:evenodd;stroke:none;stroke-width:0.25;stroke-linecap:round;stroke-linejoin:round;stroke-miterlimit:4;stroke-dasharray:none;stroke-dashoffset:0;stroke-opacity:1;color-rendering:auto;image-rendering:auto;shape-rendering:auto;text-rendering:auto;enable-background:accumulate" d="m -347.06055,174.73438 a 0.1250125,0.1250125 0 0 0 -0.0781,0.0273 l -1.51563,1.15625 a 0.1253985,0.1253985 0 1 0 0.15235,0.19922 l 1.51562,-1.15625 a 0.1250125,0.1250125 0 0 0 -0.0742,-0.22656 z" id="path27820" inkscape:connector-curvature="0"/>
      <path style="color:#000000;font-style:normal;font-variant:normal;font-weight:normal;font-stretch:normal;font-size:medium;line-height:normal;font-family:sans-serif;text-indent:0;text-align:start;text-decoration:none;text-decoration-line:none;text-decoration-style:solid;text-decoration-color:#000000;letter-spacing:normal;word-spacing:normal;text-transform:none;direction:ltr;writing-mode:lr-tb;baseline-shift:baseline;text-anchor:start;white-space:normal;clip-rule:nonzero;display:inline;overflow:visible;visibility:visible;opacity:1;isolation:auto;mix-blend-mode:normal;color-interpolation:sRGB;color-interpolation-filters:linearRGB;solid-color:#000000;solid-opacity:1;fill:#000000;fill-opacity:1;fill-rule:evenodd;stroke:none;stroke-width:0.25;stroke-linecap:round;stroke-linejoin:round;stroke-miterlimit:4;stroke-dasharray:none;stroke-dashoffset:0;stroke-opacity:1;color-rendering:auto;image-rendering:auto;shape-rendering:auto;text-rendering:auto;enable-background:accumulate" d="m -346.62305,175.39062 a 0.1250125,0.1250125 0 0 0 -0.0879,0.0352 l -1.32812,1.25 a 0.12503238,0.12503238 0 1 0 0.17187,0.18164 l 1.32813,-1.25 a 0.1250125,0.1250125 0 0 0 -0.084,-0.2168 z" id="path27822" inkscape:connector-curvature="0"/>
      <path style="color:#000000;font-style:normal;font-variant:normal;font-weight:normal;font-stretch:normal;font-size:medium;line-height:normal;font-family:sans-serif;text-indent:0;text-align:start;text-decoration:none;text-decoration-line:none;text-decoration-style:solid;text-decoration-color:#000000;letter-spacing:normal;word-spacing:normal;text-transform:none;direction:ltr;writing-mode:lr-tb;baseline-shift:baseline;text-anchor:start;white-space:normal;clip-rule:nonzero;display:inline;overflow:visible;visibility:visible;opacity:1;isolation:auto;mix-blend-mode:normal;color-interpolation:sRGB;color-interpolation-filters:linearRGB;solid-color:#000000;solid-opacity:1;fill:#000000;fill-opacity:1;fill-rule:evenodd;stroke:none;stroke-width:0.25;stroke-linecap:round;stroke-linejoin:round;stroke-miterlimit:4;stroke-dasharray:none;stroke-dashoffset:0;stroke-opacity:1;color-rendering:auto;image-rendering:auto;shape-rendering:auto;text-rendering:auto;enable-background:accumulate" d="m -346.19531,175.98438 a 0.1250125,0.1250125 0 0 0 -0.0762,0.0332 l -0.95313,0.84375 a 0.1252187,0.1252187 0 1 0 0.16602,0.1875 l 0.95312,-0.84375 a 0.1250125,0.1250125 0 0 0 -0.0898,-0.2207 z" id="path27824" inkscape:connector-curvature="0"/>
    </g>
  </g>

	<metadata>
		<rdf:RDF xmlns:rdf="http://www.w3.org/1999/02/22-rdf-syntax-ns#" xmlns:rdfs="http://www.w3.org/2000/01/rdf-schema#" xmlns:dc="http://purl.org/dc/elements/1.1/">
			<rdf:Description about="https://iconscout.com/legal#licenses" dc:title="travel-luggage-baggage-tour-trip-vacation-holiday" dc:description="travel-luggage-baggage-tour-trip-vacation-holiday" dc:publisher="Iconscout" dc:date="2017-04-25" dc:format="image/svg+xml" dc:language="en">
				<dc:creator>
					<rdf:Bag>
						<rdf:li>Vignesh Oviyan</rdf:li>
					</rdf:Bag>
				</dc:creator>
			</rdf:Description>
		</rdf:RDF>
    </metadata></svg>
