<?xml version="1.0" encoding="UTF-8"?><svg xmlns="http://www.w3.org/2000/svg" xmlns:xlink="http://www.w3.org/1999/xlink" version="1.1" id="Layer_1" x="0px" y="0px" viewBox="0 0 24 24" xml:space="preserve"><path fill="#303C42" d="M22.978 7.753l-1.952-6.396-.007-.02v-.001a.494.494 0 0 0-.542-.331l-.022.003-6.58 1.19a.501.501 0 0 0-.245.864L15.9 5.098c.024.021.052.033.078.048l-.004.007 1.249.763L15.742 8h-3.513l.637-1.648a.5.5 0 0 0-.119-.54l-.443-.428.761-.101a.5.5 0 0 0 .257-.878l-.9-.76.503-.172a.5.5 0 0 0-.324-.946l-1.338.457a.5.5 0 0 0-.16.855l.71.601-.666.088a.498.498 0 0 0-.282.855l.948.918-.656 1.7h-1.24l-.926-5.09a.503.503 0 0 0-.234-.34l-2.5-1.5a.5.5 0 1 0-.514.857l2.305 1.384L8.9 8h-.952C7.704 6.308 6.26 5 4.5 5 2.57 5 1 6.57 1 8.5c0 1.378.813 2.598 2.053 3.162-.026.277-.052.552-.052.838C3 17.457 7.062 23 12.5 23c5.437 0 9.5-5.543 9.5-10.5 0-1.568-.379-3-1.126-4.256a.5.5 0 0 0-.43-.244h-3.476l1.112-1.562 1.309.799.003-.006c.026.016.05.035.079.046l2.85 1.089a.497.497 0 0 0 .52-.102.5.5 0 0 0 .137-.511z"/><path fill="#FFF" d="M17.881 9l-.864 4.035-.527-2.633a.5.5 0 0 0-.937-.126l-.849 1.697L14.11 9h3.771z"/><path fill="#FFCA28" d="M2 8.5C2 7.122 3.12 6 4.5 6c1.208 0 2.217.86 2.45 2H4.555a.5.5 0 0 0-.43.244 7.882 7.882 0 0 0-.914 2.376A2.472 2.472 0 0 1 2 8.5z"/><path opacity="0.2" fill="#FFF" d="M2.312 9c0-1.378 1.122-2.5 2.5-2.5a2.49 2.49 0 0 1 1.936.929A2.495 2.495 0 0 0 4.5 6 2.503 2.503 0 0 0 2 8.5c0 .575.215 1.099.558 1.526A2.415 2.415 0 0 1 2.312 9z"/><path fill="#8D6E63" d="M21 12.5c0 4.484-3.635 9.5-8.5 9.5a7.099 7.099 0 0 1-2.693-.539.498.498 0 0 0 .693-.46.5.5 0 1 0-.697.458C6.353 20.05 4 16.106 4 12.5c0-1.284.284-2.46.847-3.5h8.243l.92 4.598a.5.5 0 0 0 .937.126l.849-1.697.714 3.571a.5.5 0 0 0 .486.402H17a.5.5 0 0 0 .49-.395L18.904 9h1.248c.563 1.04.847 2.216.847 3.5z"/><path fill="#7CB342" d="M19.28 5.998l-2.154-1.314 2.72-2.034z"/><path fill="#FF8F00" d="M15.059 3l3.493-.631-2.288 1.711z"/><path opacity="0.2" fill="#FFF" d="M18.02 2.767l.532-.398-3.493.63.28.252z"/><path fill="#FF8F00" d="M20.21 6.49l.476-2.819 1.038 3.396z"/><path opacity="0.1" d="M21.38 6.936l.344.131-1.038-3.396-.108.641z"/><path opacity="0.1" d="M20.153 9H19.5c0 2.034-.692 4.16-1.874 5.968l-.137.637A.5.5 0 0 1 17 16h-.003c-.038 0-.072-.011-.108-.02-1.701 2.073-4.113 3.52-6.888 3.52-1.424 0-2.75-.387-3.937-1.037.978 1.315 2.257 2.39 3.74 2.996a.5.5 0 1 1 .004.002c.84.342 1.742.54 2.693.54 4.865 0 8.5-5.017 8.5-9.5 0-1.285-.284-2.46-.847-3.5z"/><circle fill="#303C42" cx="8.999917" cy="20.0001087" r="0.5"/><circle fill="#303C42" cx="10.999917" cy="20.0001087" r="0.5"/><linearGradient id="SVGID_1_" gradientUnits="userSpaceOnUse" x1="16.7762547" y1="11.046526" x2="21.573801" y2="15.8440723"><stop offset="0" stop-color="#000" stop-opacity="0.1"/><stop offset="1" stop-color="#000" stop-opacity="0"/></linearGradient><path fill="url(#SVGID_1_)" d="M18.905 9l-1.416 6.605A.5.5 0 0 1 17 16h-.003a.5.5 0 0 1-.486-.402l-.714-3.571-.849 1.697a.497.497 0 0 1-.513.272.494.494 0 0 1-.25-.119l4.678 4.679C20.201 16.796 21 14.593 21 12.5c0-1.284-.284-2.46-.847-3.5h-1.248z"/><linearGradient id="SVGID_2_" gradientUnits="userSpaceOnUse" x1="1.9867065" y1="5.6086102" x2="21.9296646" y2="14.908165"><stop offset="0" stop-color="#FFF" stop-opacity="0.2"/><stop offset="1" stop-color="#FFF" stop-opacity="0"/></linearGradient><path fill="url(#SVGID_2_)" d="M22.978 7.753l-1.952-6.396-.007-.02v-.001a.494.494 0 0 0-.542-.331l-.022.003-6.58 1.19a.501.501 0 0 0-.245.864L15.9 5.098c.024.021.052.033.078.048l-.004.007 1.249.763L15.742 8h-3.513l.637-1.648a.5.5 0 0 0-.119-.54l-.443-.428.761-.101a.5.5 0 0 0 .257-.878l-.9-.76.503-.172a.5.5 0 0 0-.324-.946l-1.338.457a.5.5 0 0 0-.16.855l.71.601-.666.088a.498.498 0 0 0-.282.855l.948.918-.656 1.7h-1.24l-.926-5.09a.503.503 0 0 0-.234-.34l-2.5-1.5a.5.5 0 1 0-.514.857l2.305 1.384L8.9 8h-.952C7.704 6.308 6.26 5 4.5 5 2.57 5 1 6.57 1 8.5c0 1.378.813 2.598 2.053 3.162-.026.277-.052.552-.052.838C3 17.457 7.062 23 12.5 23c5.437 0 9.5-5.543 9.5-10.5 0-1.568-.379-3-1.126-4.256a.5.5 0 0 0-.43-.244h-3.476l1.112-1.562 1.309.799.003-.006c.026.016.05.035.079.046l2.85 1.089a.497.497 0 0 0 .52-.102.5.5 0 0 0 .137-.511z"/><metadata><rdf:RDF xmlns:rdf="http://www.w3.org/1999/02/22-rdf-syntax-ns#" xmlns:rdfs="http://www.w3.org/2000/01/rdf-schema#" xmlns:dc="http://purl.org/dc/elements/1.1/"><rdf:Description about="https://iconscout.com/legal#licenses" dc:title="travel,tourism,tropical,exotic,dring" dc:description="travel,tourism,tropical,exotic,dring" dc:publisher="Iconscout" dc:date="2017-08-16" dc:format="image/svg+xml" dc:language="en"><dc:creator><rdf:Bag><rdf:li>Those Icons</rdf:li></rdf:Bag></dc:creator></rdf:Description></rdf:RDF></metadata></svg>